<svg width="20" height="20" fill="none" xmlns="http://www.w3.org/2000/svg"><path d="M19.989 6.058l-.006-.052a.714.714 0 00-.06-.188L16.978.519S16.6 0 16.51 0H3.952L.175 5.638l-.044.052-.006.024a.975.975 0 00-.078.182l-.016.05a.91.91 0 00.006.494l.018.057a.913.913 0 00.087.182l9.132 12.918.018.03a.834.834 0 00.174.182l.053.037a.898.898 0 00.186.097l.051.02c.09.025.167.037.243.037a.875.875 0 00.253-.04l.062-.025a.87.87 0 00.18-.099l.041-.028a.765.765 0 00.158-.163l9.143-12.932a.966.966 0 00.153-.41l.007-.067.004-.053-.011-.125zm-4.903-.344l1.302-2.63 1.3 2.63h-2.602zm-.78 1.559h3.087l-5.146 7.28 2.059-7.28zm-.764-2.347l-1.88-2.848h3.289l-1.41 2.848zM7.52 7.273h4.958l-2.48 8.767L7.52 7.273zm.492-1.559l1.986-3.01 1.987 3.01H8.013zm-1.4-1.024l-.861-2.612h2.585L6.613 4.69zm1.14 9.864L2.606 7.273h3.088l2.059 7.28zM4.262 3.102l.862 2.612H2.538l1.724-2.612z" fill="#fff"/></svg>