<svg xmlns="http://www.w3.org/2000/svg" width="33.937" height="33.91" viewBox="0 0 33.937 33.91">
  <defs>
    <style>
      .cls-1 {
        fill: #fff;
        fill-rule: evenodd;
      }
    </style>
  </defs>
  <path id="Write_copy" data-name="Write copy" class="cls-1" d="M658.514,1281.09l3.03,3.03-12.608,13.06h-3.5v-3.49l13.076-12.6m0.027-5.09a2.121,2.121,0,0,0-1.5.62L641.2,1291.89v9.53h9.539l15.28-15.83a2.114,2.114,0,0,0,0-2.99l-5.981-5.98a2.121,2.121,0,0,0-1.5-.62h0Zm3.856,28.6a1.055,1.055,0,0,1-1.06,1.05H638.019a1.055,1.055,0,0,1-1.06-1.05v-23.3a1.057,1.057,0,0,1,1.06-1.06h5.3a2.12,2.12,0,0,0,2.12-2.12h0a2.12,2.12,0,0,0-2.12-2.12h-8.479a2.12,2.12,0,0,0-2.12,2.12v29.65a2.12,2.12,0,0,0,2.12,2.12h29.678a2.12,2.12,0,0,0,2.12-2.12v-8.47a2.12,2.12,0,0,0-2.12-2.12h0a2.12,2.12,0,0,0-2.12,2.12v5.3Z" transform="translate(-632.719 -1276)"/>
</svg>
