<svg xmlns="http://www.w3.org/2000/svg" width="69" height="69" viewBox="0 0 69 69">
  <defs>
    <style>
      .cls-1 {
        fill: #fff;
        fill-rule: evenodd;
      }
    </style>
  </defs>
  <path id="Write_copy_3" data-name="Write copy 3" class="cls-1" d="M883.458,3680.37l6.162,6.16-25.642,26.59h-7.115v-7.11l26.595-25.64m0.055-10.36a4.289,4.289,0,0,0-3.042,1.26l-32.231,31.07v19.41h19.4l31.077-32.23a4.311,4.311,0,0,0,0-6.09l-12.165-12.16a4.288,4.288,0,0,0-3.041-1.26h0Zm7.842,58.2a2.16,2.16,0,0,1-2.156,2.16H841.773a2.16,2.16,0,0,1-2.156-2.16v-47.42a2.153,2.153,0,0,1,2.156-2.16h10.778a4.311,4.311,0,0,0,4.312-4.31h0a4.311,4.311,0,0,0-4.312-4.31H835.305a4.311,4.311,0,0,0-4.311,4.31v60.36a4.311,4.311,0,0,0,4.311,4.31h60.362a4.311,4.311,0,0,0,4.311-4.31v-17.25a4.311,4.311,0,0,0-4.311-4.31h0a4.311,4.311,0,0,0-4.312,4.31v10.78Z" transform="translate(-831 -3670)"/>
</svg>
