<svg width="95" height="128" viewBox="0 0 95 128" fill="none" xmlns="http://www.w3.org/2000/svg">
<path d="M81.0234 67.8928H87.6972H87.852L87.4959 71.9652L87.0158 77.3848L85.1112 99.0476L85.0183 100.085L83.5318 117.025C83.377 118.744 82.804 120.339 81.9214 121.701C80.0788 124.597 76.8271 126.502 73.1727 126.502H62.0239H57.6573H37.3262H32.9595H21.8107C18.1564 126.502 14.9202 124.597 13.062 121.701C12.1794 120.339 11.6064 118.744 11.4516 117.025L9.96515 100.085L9.87225 99.0476L7.9676 77.3848L7.48758 71.9652L7.13147 67.8928H7.28637H17.4596H28.1129H42.1728H52.8106H66.8705H71.5314" stroke="white" stroke-width="2" stroke-miterlimit="10" stroke-linecap="round" stroke-linejoin="round"/>
<path d="M29.1963 55.304H27.8801" stroke="white" stroke-width="2" stroke-miterlimit="10" stroke-linecap="round" stroke-linejoin="round"/>
<path d="M81.024 67.8927H87.6978C89.4321 67.8927 91.0115 67.1959 92.1574 66.0501C93.3032 64.9042 94 63.3403 94 61.5906C94 58.8344 92.2347 56.5117 89.7727 55.66H89.7572" stroke="white" stroke-width="2" stroke-miterlimit="10" stroke-linecap="round" stroke-linejoin="round"/>
<path d="M71.5473 67.8927H66.8865H52.8265H42.1887H28.1288H17.4755H7.30219C3.81818 67.8927 1 65.0746 1 61.5906C1 59.8563 1.6968 58.2769 2.84265 57.1465C3.52397 56.4652 4.36017 55.9387 5.30473 55.6445" stroke="white" stroke-width="2" stroke-miterlimit="10" stroke-linecap="round" stroke-linejoin="round"/>
<path d="M39.7728 58.1377C39.5869 58.9894 39.6179 59.8565 39.494 60.7081C39.1844 62.6282 37.8836 64.4244 36.0564 65.0128C34.2138 65.6167 31.9376 64.7496 31.1943 62.9689C30.7762 61.9624 30.8692 60.832 30.9311 59.7481C30.993 58.6642 31.0395 57.5184 30.544 56.5583C30.064 55.5828 28.8717 54.8705 27.8652 55.3041C26.6264 55.8306 26.3168 57.7661 24.9851 58.0758C24.1799 58.2616 23.3592 57.7041 22.523 57.7506C21.5165 57.7816 20.7269 58.6642 20.4327 59.6242C20.123 60.5843 20.2314 61.6217 20.2469 62.6282C20.2778 63.6192 20.2623 64.6877 19.7514 65.5548C19.1784 66.5458 18.0016 67.1497 16.8558 67.0413C15.7254 66.9329 14.6879 66.0967 14.3163 65.0283C13.8363 63.5728 14.5021 61.9933 14.3627 60.4604C14.2698 59.6087 13.9291 58.819 13.3872 58.1687H10.1974C6.85273 58.1687 4.14299 55.4589 4.14299 52.1143C4.14299 49.7761 5.49014 47.7477 7.44119 46.7412C5.01013 42.8855 3.58557 38.3331 3.58557 33.44C3.58557 19.7363 14.7034 8.61841 28.4071 8.61841C42.1109 8.61841 53.2288 19.7363 53.2288 33.44C53.2288 38.1782 51.897 42.5913 49.6053 46.354C52.0364 47.1283 53.8017 49.42 53.8017 52.1143C53.8017 55.4589 51.0918 58.1687 47.7472 58.1687H39.7728V58.1377Z" stroke="white" stroke-width="2" stroke-miterlimit="10" stroke-linecap="round" stroke-linejoin="round"/>
<path d="M47.9476 58.1377C47.9476 58.1377 62.4565 58.2461 62.5959 58.2306C62.6888 58.9274 62.6269 59.6551 62.5804 60.3674C62.5185 61.3584 62.4875 62.3804 62.9365 63.263C63.3856 64.1456 64.4385 64.7805 65.3676 64.4398C66.7302 63.9134 66.8696 61.761 68.2323 61.2191C69.053 60.8939 70.0285 61.343 70.5394 62.0707C71.0504 62.783 71.1898 63.6966 71.2053 64.5792C71.2362 65.4618 71.1743 66.3599 71.3447 67.2116C71.7627 69.3794 73.7602 71.1446 75.959 71.2685C78.1578 71.4079 80.3565 69.9059 81.0379 67.8C81.4869 66.4064 81.3166 64.8889 81.0534 63.4488C80.8056 62.0088 80.4804 60.5377 80.6663 59.0822C80.7127 58.757 80.7747 58.4319 80.8986 58.1067H84.4445C88.3001 58.1067 91.428 54.9788 91.428 51.1232C91.428 48.0263 89.384 45.394 86.5968 44.4804C89.2447 40.1447 90.7776 35.0503 90.7776 29.5998C90.7776 13.7902 77.9565 1 62.1778 1C53.2587 1 45.2998 5.07242 40.0505 11.4675" stroke="white" stroke-width="2" stroke-miterlimit="10" stroke-linecap="round" stroke-linejoin="round"/>
<path d="M67.3666 6.99243C70.7577 7.7202 73.901 9.53188 76.2391 12.0868C78.5773 14.6418 80.0948 17.9399 80.5129 21.393" stroke="white" stroke-width="2" stroke-miterlimit="10" stroke-linecap="round" stroke-linejoin="round"/>
<path d="M42.6368 21.3931C46.3067 24.7687 47.7313 30.3895 46.0744 35.1123" stroke="white" stroke-width="2" stroke-miterlimit="10" stroke-linecap="round" stroke-linejoin="round"/>
</svg>
