<?xml version="1.0" standalone="no"?>
<!DOCTYPE svg PUBLIC "-//W3C//DTD SVG 1.1//EN" "http://www.w3.org/Graphics/SVG/1.1/DTD/svg11.dtd" >
<svg>
<metadata>
Created by FontForge 20090914 at Sat Feb 15 19:33:14 2020
 By www-data
&#194;&#169; 2011 Sergiy S. Tkachenko / 4th february
&#194;&#169; 2011 DesignContest.com
http://creativecommons.org/licenses/by-nd/3.0
http://creativecommons.org/licenses/by-nd/3.0/deed.ru
</metadata>
<defs>
<font id="SansusWebissimo" horiz-adv-x="1044" >
  <font-face 
    font-family="Sansus Webissimo"
    font-weight="400"
    font-stretch="normal"
    units-per-em="2048"
    panose-1="0 0 0 0 0 0 0 0 0 0"
    ascent="1536"
    descent="-512"
    x-height="1053"
    cap-height="1348"
    bbox="-88 -494.001 1673 1907"
    underline-thickness="102"
    underline-position="-102"
    unicode-range="U+000D-U+E000"
  />
<missing-glyph horiz-adv-x="748" 
d="M68 0v1365h544v-1365h-544zM136 68h408v1229h-408v-1229z" />
    <glyph glyph-name=".notdef" horiz-adv-x="748" 
d="M68 0v1365h544v-1365h-544zM136 68h408v1229h-408v-1229z" />
    <glyph glyph-name="glyph1" horiz-adv-x="2048" 
 />
    <glyph glyph-name="glyph1" horiz-adv-x="2048" 
 />
    <glyph glyph-name="uni000D" unicode="&#xd;" horiz-adv-x="430" 
 />
    <glyph glyph-name="space" unicode=" " horiz-adv-x="430" 
 />
    <glyph glyph-name="exclam" unicode="!" horiz-adv-x="577" 
d="M135 152c0 52 14.666 93.667 43.999 125s66 47 110 47s80.5 -15.667 109.5 -47s43.5 -73 43.5 -125s-14.667 -93.667 -44 -125s-65.666 -47 -108.999 -47c-44 0 -80.667 15.667 -110 47s-44 73 -44 125zM134.999 1450h309l-34 -907h-240z" />
    <glyph glyph-name="quotedbl" unicode="&#x22;" horiz-adv-x="749" 
d="M78 1446h227l-29 -496h-170zM426 1446h227l-28 -496h-172z" />
    <glyph glyph-name="numbersign" unicode="#" horiz-adv-x="1011" 
d="M23 379l24.001 193.997h148l43 228h-166l24 192h178l56 299l202 -18l-53 -281h166l53 289l203 -20c-9.33301 -45.333 -17.833 -90.166 -25.5 -134.499s-16.167 -89.166 -25.5 -134.499h139l-12 -97c-4 -32 -7.33301 -63.667 -10 -95h-154l-43 -228h170l-25 -194h-180
l-61 -326l-100.5 11.5c-33 3.66699 -66.5 6.83398 -100.5 9.50098l55 305h-166l-59 -313c-34 2.66699 -67.333 5.66699 -100 9s-66.334 7 -101.001 11l56 293h-135zM399.001 572.997h166l43 228h-168l-20 -113.5z" />
    <glyph glyph-name="dollar" unicode="$" horiz-adv-x="888" 
d="M53 139l49 201.005c13.333 -4 30.666 -9.5 51.999 -16.5s44.333 -13.833 69 -20.5s50 -12.334 76 -17.001s51.333 -7 76 -7c46.667 0 81.5 10.5 104.5 31.5s34.5 48.5 34.5 82.5c0 28.667 -10.833 54.667 -32.5 78s-48.667 46.5 -81 69.5s-67.166 46.5 -104.499 70.5
s-72.166 51.333 -104.499 82s-59.333 65.167 -81 103.5s-32.5 83.5 -32.5 135.5c0 84.667 23.5 154.667 70.5 210s112.833 92.333 197.5 111l-4 209h209c-1.33301 -32.667 -2.33301 -65.334 -3 -98.001s-1 -65.334 -1 -98.001c53.333 -4 99.333 -10.5 138 -19.5l91 -21.5
l-22 -213c-19.333 6.66699 -50.833 15.167 -94.5 25.5s-89.5 15.5 -137.5 15.5c-44 0 -80.167 -9.33301 -108.5 -28s-42.5 -44.334 -42.5 -77.001c0 -28.667 11.167 -54.5 33.5 -77.5s50 -45.833 83 -68.5s69.167 -46 108.5 -70s75.5 -51 108.5 -81s60.667 -64 83 -102
s33.5 -83 33.5 -135c0 -86 -22.167 -158.833 -66.5 -218.5s-113.5 -98.834 -207.5 -117.501l4 -201h-209l4 186c-38 2.66699 -72.667 7.5 -104 14.5s-59.333 14.667 -84 23s-45.834 15.833 -63.501 22.5z" />
    <glyph glyph-name="percent" unicode="%" horiz-adv-x="1359" 
d="M68 1042c0 230.667 88.667 346.334 266 347.001c177.333 -0.666992 266 -116.334 266 -347.001c0 -120 -21.833 -208.333 -65.5 -265s-110.5 -85 -200.5 -85c-91.333 0 -158.5 28.333 -201.5 85s-64.5 145 -64.5 265zM240 1042c0 -66.667 7.16797 -117.667 21.501 -153
s38.5 -53 72.5 -53c35.333 0 60.166 17.667 74.499 53s21.5 86.333 21.5 153c0 65.333 -7.5 115.5 -22.5 150.5s-39.5 52.5 -73.5 52.5s-58.167 -17.333 -72.5 -52s-21.5 -85 -21.5 -151zM242.001 -10l661 1372h223l-659 -1372h-225zM768.001 309
c0 230.667 88.667 346 266 346c179.333 0 269 -115.333 269 -346c0 -120 -22.333 -208.333 -67 -265s-112 -85 -202 -85c-91.333 0 -158.5 28.333 -201.5 85s-64.5 145 -64.5 265zM940.001 309c0 -66.667 7.16797 -117.5 21.501 -152.5s38.5 -52.5 72.5 -52.5
c35.333 0 60.166 17.5 74.499 52.5s21.5 85.833 21.5 152.5c0 65.333 -7.5 115.5 -22.5 150.5s-39.5 52.5 -73.5 52.5s-58.167 -17.333 -72.5 -52s-21.5 -85 -21.5 -151z" />
    <glyph glyph-name="ampersand" unicode="&#x26;" horiz-adv-x="1308" 
d="M47 393c0 92.667 23.165 170.5 69.498 233.5s107.166 112.833 182.499 149.5c-39.333 40.667 -72.333 84.667 -99 132s-40 103 -40 167c0 104 33.333 182.667 100 236s158.334 80 275.001 80c110.667 0 199.667 -24.667 267 -74s101 -123 101 -221
c0 -90 -23.5 -165.167 -70.5 -225.5s-108.833 -111.5 -185.5 -153.5l219 -248c8 12 16.167 26.667 24.5 44s15.333 35.5 21 54.5s10.5 38 14.5 57s6 36.167 6 51.5h270c-2.66699 -39.333 -9.16699 -78.5 -19.5 -117.5s-23 -76 -38 -111s-31 -66.833 -48 -95.5
s-34.5 -53 -52.5 -73l252 -279h-366l-86 98c-45.333 -38 -95.666 -67.667 -150.999 -89s-125.333 -32 -210 -32c-60 0 -116.667 8.33301 -170 25s-99.666 41.667 -138.999 75s-70.333 76.333 -93 129s-34 115 -34 187zM351.998 414c0 -62.667 15.333 -114.5 46 -155.5
s72 -61.5 124 -61.5c30 0 59.333 6.5 88 19.5s50.667 32.167 66 57.5l-217 330c-35.333 -18 -62 -44 -80 -78s-27 -71.333 -27 -112zM450.998 1071c0 -26 1.66895 -50.501 5.00195 -73.501s16.666 -48.167 39.999 -75.5l28 -33c23.333 16.667 46.666 40.334 69.999 71.001
s35 65.667 35 105c0 26 -6.83301 51.667 -20.5 77s-39.167 38 -76.5 38c-22 0 -41 -7.5 -57 -22.5s-24 -43.833 -24 -86.5z" />
    <glyph glyph-name="quotesingle" unicode="'" horiz-adv-x="403" 
d="M78 1446h227l-29 -496h-170z" />
    <glyph glyph-name="parenleft" unicode="(" horiz-adv-x="667" 
d="M104 573c0 124 10 236.669 30 338.002s46 191.5 78 270.5s68.833 147.667 110.5 206s84.5 107.166 128.5 146.499l176 -125c-23.333 -26 -49 -63.833 -77 -113.5s-54 -110.334 -78 -182.001s-44.167 -153 -60.5 -244s-24.5 -189.833 -24.5 -296.5s8.16699 -205 24.5 -295
s36.5 -170.5 60.5 -241.5s50 -131.333 78 -181s53.667 -87.5 77 -113.5l-178 -127c-44 39.333 -86.5 88 -127.5 146s-77.5 126.333 -109.5 205s-58 168.5 -78 269.5s-30 213.5 -30 337.5z" />
    <glyph glyph-name="parenright" unicode=")" horiz-adv-x="667" 
d="M39 -258c23.333 26 49.002 63.8281 77.002 113.495s54.167 110.334 78.5 182.001s44.833 153 61.5 244s25 189.833 25 296.5s-8.33301 205 -25 295s-37.167 170.5 -61.5 241.5s-50.5 131.333 -78.5 181s-53.667 87.5 -77 113.5l178 125
c42 -39.333 84 -88.166 126 -146.499s79.333 -126.666 112 -204.999s58.834 -167.666 78.501 -267.999s29.5 -212.5 29.5 -336.5s-9.83301 -236.667 -29.5 -338s-45.834 -191.666 -78.501 -270.999s-69.834 -148.333 -111.501 -207s-83.834 -107 -126.501 -145z" />
    <glyph glyph-name="asterisk" unicode="*" horiz-adv-x="837" 
d="M39 1026l65.001 199.001l234 -107l-27 268h215l-30 -268l239 107l31.5 -99.5c10.333 -33.667 21.166 -66.834 32.499 -99.501l-252 -51l184 -201l-174 -125l-137 234l-139 -234l-86 61.5l-86 63.5l182 199c-42 8 -84 16.5 -126 25.5z" />
    <glyph glyph-name="plus" unicode="+" horiz-adv-x="962" 
d="M80 514v217h287v318h229v-318h287v-217h-287v-319h-229v319h-287z" />
    <glyph glyph-name="comma" unicode="," horiz-adv-x="477" 
d="M49 -246c19.333 35.333 38.166 74.168 56.499 116.501s27.5 79.5 27.5 111.5c0 26 -3.66699 51.5 -11 76.5s-11 53.833 -11 86.5v11c0 45.333 12.5 81.833 37.5 109.5s52.5 41.5 82.5 41.5c96.667 0 145.334 -60 146.001 -180
c-2.66699 -35.333 -10.5 -71.833 -23.5 -109.5s-29.167 -75.334 -48.5 -113.001s-40.5 -74.5 -63.5 -110.5l-67.5 -103z" />
    <glyph glyph-name="hyphen" unicode="-" horiz-adv-x="653" 
d="M74 463v221h506v-221h-506z" />
    <glyph glyph-name="period" unicode="." horiz-adv-x="509" 
d="M100 152c0 52 14.667 93.667 44 125s66 47 110 47s80.667 -15.667 110 -47s44 -73 44 -125s-14.833 -93.667 -44.5 -125s-66.167 -47 -109.5 -47c-44 0 -80.667 15.667 -110 47s-44 73 -44 125z" />
    <glyph glyph-name="slash" unicode="/" horiz-adv-x="800" 
d="M2 -276l170.001 555l162 508.5l135 413.5c39.333 119.333 70.666 209 93.999 269h246c-22 -60 -53.167 -149.667 -93.5 -269l-135 -413.5l-160.5 -509l-170 -554.5h-248z" />
    <glyph glyph-name="zero" unicode="0" horiz-adv-x="1048" 
d="M63 672c0 124 10.001 230.333 30.001 319s49.5 161 88.5 217s87.167 97.333 144.5 124s122.666 40 195.999 40c74 0 139.667 -13.333 197 -40s105.5 -68 144.5 -124s68.667 -128.333 89 -217s30.5 -195 30.5 -319s-10.167 -230.167 -30.5 -318.5s-50 -160.833 -89 -217.5
s-87.167 -98 -144.5 -124s-123 -39 -197 -39s-139.5 13 -196.5 39s-105 67.333 -144 124s-68.5 129 -88.5 217s-30 194.333 -30 319zM346.001 672c0 -157.333 12.334 -277.998 37.001 -361.998s71 -126 139 -126s115 41.667 141 125s39 204.333 39 363
c0 157.333 -12.833 278.166 -38.5 362.499s-72.834 126.5 -141.501 126.5c-66.667 0 -112.667 -42.333 -138 -127s-38 -205.334 -38 -362.001z" />
    <glyph glyph-name="one" unicode="1" horiz-adv-x="737" 
d="M-10 1059l109.5 87l106.5 82l93 69.5l70 50.5h252v-1348h-283v1063l-115.5 -93l-109.5 -85z" />
    <glyph glyph-name="two" unicode="2" horiz-adv-x="878" 
d="M33 0l-0.000976562 199.001l69.5 73.5c29.667 31 62.334 67 98.001 108s72 85.167 109 132.5s70.5 95.5 100.5 144.5s54.5 98.5 73.5 148.5s28.5 97.333 28.5 142c0 134 -59.333 201 -178 201c-26 0 -51.667 -2 -77 -6s-48.833 -9.16699 -70.5 -15.5
s-40.834 -12.5 -57.501 -18.5s-29 -11 -37 -15c-8 31.333 -15.833 63.666 -23.5 96.999l-21.5 97c10.667 5.33301 27.334 12.833 50.001 22.5s49 19 79 28s63.833 16.833 101.5 23.5s77.5 10 119.5 10c134 0 235.167 -31 303.5 -93s102.5 -152.333 102.5 -271
c0 -78 -14 -153.5 -42 -226.5s-63.833 -142.667 -107.5 -209s-92.167 -128.833 -145.5 -187.5s-105.333 -112.667 -156 -162l220 8.5c76 3 158.333 4.5 247 4.5v-236h-786z" />
    <glyph glyph-name="three" unicode="3" horiz-adv-x="954" 
d="M16 80l76 195.997c6.66699 -2.66699 18.667 -8 36 -16s38.166 -16.167 62.499 -24.5s51.833 -15.833 82.5 -22.5s62.667 -10 96 -10c68 0 122.167 15.333 162.5 46s60.5 83 60.5 157c0 61.333 -18.833 105.666 -56.5 132.999s-91.167 41 -160.5 41
c-31.333 0 -61 -0.333008 -89 -1s-48.333 -1 -61 -1v206h70c31.333 0 60.666 1.5 87.999 4.5s52 9.16699 74 18.5c6.66699 2.66699 15.5 8.5 26.5 17.5s21.833 21.333 32.5 37s19.834 34 27.501 55s11.5 45.167 11.5 72.5c0 54.667 -17.333 94.334 -52 119.001
s-83 37 -145 37c-27.333 0 -54.166 -2 -80.499 -6s-50.5 -8.83301 -72.5 -14.5s-40.167 -11.167 -54.5 -16.5s-23.5 -8.66602 -27.5 -9.99902l-49 209c9.33301 4 23.833 9.33301 43.5 16s44.667 13.834 75 21.501s64.5 14.167 102.5 19.5s79.667 8 125 8
c135.333 0 240.833 -28.667 316.5 -86s113.5 -141.333 113.5 -252c0 -82 -19.167 -148.5 -57.5 -199.5s-84.166 -90.833 -137.499 -119.5c70.667 -19.333 127.667 -54.666 171 -105.999s65 -123.333 65 -216c0 -74 -12 -137.5 -36 -190.5s-57.167 -96.667 -99.5 -131
s-92.833 -59.333 -151.5 -75s-123.334 -23.5 -194.001 -23.5c-54.667 0 -104.167 5.16699 -148.5 15.5s-83.333 21.666 -117 33.999s-61 24.333 -82 36s-36.5 18.834 -46.5 21.501z" />
    <glyph glyph-name="four" unicode="4" horiz-adv-x="1050" 
d="M57 350v185l359 813h291l-330 -768h227v235l283 41v-276h106v-230h-106v-350h-283v350h-547z" />
    <glyph glyph-name="five" unicode="5" horiz-adv-x="935" 
d="M41 88l74 179.999c12 -6.66699 28.667 -14.5 50 -23.5s44.833 -17.167 70.5 -24.5s52.5 -13.666 80.5 -18.999s55 -8 81 -8c61.333 0 107.833 20 139.5 60s47.5 97.667 47.5 173c0 70.667 -16.833 124.834 -50.5 162.501s-82.5 56.5 -146.5 56.5
c-39.333 0 -76.833 -5.5 -112.5 -16.5s-58.834 -19.833 -69.501 -26.5l-38 12.5c-13.333 4.33301 -26 7.83301 -38 10.5l55 723h631v-226h-418l-20 -295c15.333 6.66699 31.5 12.167 48.5 16.5s36.833 6.5 59.5 6.5c114.667 0 207.5 -35.5 278.5 -106.5
s106.5 -178.167 106.5 -321.5c0 -80.667 -11.5 -149 -34.5 -205s-55 -102 -96 -138s-89.5 -62.333 -145.5 -79s-117.333 -25 -184 -25c-54.667 0 -102.5 4.83301 -143.5 14.5s-76.167 21 -105.5 34s-53.666 25.667 -72.999 38s-35 21.166 -47 26.499z" />
    <glyph glyph-name="six" unicode="6" horiz-adv-x="983" 
d="M61 510c0 120 16.835 227.171 50.502 321.504s78.834 177 135.501 248s122.5 131.333 197.5 181s153.5 90.834 235.5 123.501l84 -196c-76.667 -32.667 -147.334 -78.334 -212.001 -137.001s-115 -135.334 -151 -230.001c23.333 9.33301 50.666 18.166 81.999 26.499
s65 12.5 101 12.5c53.333 0 101.166 -9.83301 143.499 -29.5s78.5 -47.334 108.5 -83.001s53.167 -78 69.5 -127s24.5 -102.167 24.5 -159.5c0 -80.667 -11.333 -151.334 -34 -212.001s-53.834 -111.167 -93.501 -151.5s-85.667 -70.833 -138 -91.5
s-109.166 -31 -170.499 -31c-60 0 -116.333 10.333 -169 31s-98.5 52.5 -137.5 95.5s-69.833 98.333 -92.5 166s-34 148.5 -34 242.5zM344.002 434.004c2.66699 -76.667 17.667 -138.167 45 -184.5s65 -69.5 113 -69.5s84.833 22.833 110.5 68.5s38.5 111.5 38.5 197.5
c0 76.667 -13.5 134.167 -40.5 172.5s-62.5 57.5 -106.5 57.5c-30 0 -57.333 -5.83301 -82 -17.5s-46 -27.167 -64 -46.5c-5.33301 -26 -9 -54 -11 -84s-3 -61.333 -3 -94z" />
    <glyph glyph-name="seven" unicode="7" horiz-adv-x="856" 
d="M27 1114v234h794v-172l-93 -230.5l-108.5 -285l-117 -320.5l-117.5 -340h-299l70 190.5l86 224l92 230.5l87 213l68.5 170c19 48 31.833 82 38.5 102z" />
    <glyph glyph-name="eight" unicode="8" horiz-adv-x="995" 
d="M57 393c0 92.667 21.498 164.669 64.498 216.002s100.167 86.666 171.5 105.999c-53.333 28.667 -99.166 68.5 -137.499 119.5s-57.5 117.5 -57.5 199.5c0 54.667 10 103.167 30 145.5s48 77.833 84 106.5s79 50.167 129 64.5s105.667 21.5 167 21.5
c122.667 0 218.167 -28.667 286.5 -86s102.5 -141.333 102.5 -252c0 -82 -19.167 -148.5 -57.5 -199.5s-84.166 -90.833 -137.499 -119.5c70.667 -19.333 127.667 -54.666 171 -105.999s65 -123.333 65 -216c0 -74 -11 -137.5 -33 -190.5s-52.333 -96.667 -91 -131
s-85 -59.333 -139 -75s-113 -23.5 -177 -23.5s-123 7.83301 -177 23.5s-100.5 40.667 -139.5 75s-69.5 78.166 -91.5 131.499s-33 116.666 -33 189.999zM355.998 385.002c0 -66.667 12.667 -116.834 38 -150.501s60 -50.5 104 -50.5s78.5 16.833 103.5 50.5
s37.5 83.834 37.5 150.501c0 61.333 -16 108.833 -48 142.5s-76.667 50.5 -134 50.5c-32.667 0 -57.667 -16.833 -75 -50.5s-26 -81.167 -26 -142.5zM392.998 1010c0 -20.667 0.666992 -43.667 2 -69s6.5 -48.833 15.5 -70.5s23.333 -40 43 -55s48.167 -22.5 85.5 -22.5
c16.667 0 29 6.83301 37 20.5s14 31.334 18 53.001s6.33301 45.167 7 70.5s1 49.666 1 72.999c0 46.667 -9.16699 83.5 -27.5 110.5s-43.833 40.5 -76.5 40.5c-34 0 -60 -13.5 -78 -40.5s-27 -63.833 -27 -110.5z" />
    <glyph glyph-name="nine" unicode="9" horiz-adv-x="983" 
d="M53 887c0 79.333 11.332 149.333 33.999 210s53.5 111.5 92.5 152.5s84.667 71.667 137 92s109.166 30.5 170.499 30.5c60 0 116.333 -10.167 169 -30.5s98.5 -52.333 137.5 -96s69.833 -99 92.5 -166s34 -147.5 34 -241.5c0 -121.333 -16.833 -229.166 -50.5 -323.499
s-78.834 -177 -135.501 -248s-122.167 -131.5 -196.5 -181.5s-153.166 -91.333 -236.499 -124l-84 197c76.667 31.333 147.334 76.333 212.001 135s115 135.667 151 231c-23.333 -9.33301 -49.666 -18.166 -78.999 -26.499s-62 -12.5 -98 -12.5
c-53.333 0 -101.333 9.66699 -144 29s-79.5 46.666 -110.5 81.999s-54.667 77.666 -71 126.999s-24.5 104 -24.5 164zM329.999 899c0 -78 13.499 -135.667 40.499 -173s62.5 -56 106.5 -56c30 0 57.333 5.83301 82 17.5s45.334 27.5 62.001 47.5c10.667 52 16 113 16 183
c-2.66699 78 -17.667 138.667 -45 182s-65 65 -113 65s-84.833 -22.833 -110.5 -68.5s-38.5 -111.5 -38.5 -197.5z" />
    <glyph glyph-name="colon" unicode=":" horiz-adv-x="509" 
d="M102 190c0 50.667 14.667 92 44 124s65.333 48 108 48c44 0 80.333 -16 109 -48s43 -73.333 43 -124c0 -52 -14.5 -93.333 -43.5 -124s-65.167 -46 -108.5 -46c-42 0 -77.833 15.5 -107.5 46.5s-44.5 72.167 -44.5 123.5zM102 821c0 52 14.667 93.667 44 125
s65.333 47 108 47c44 0 80.333 -15.667 109 -47s43 -73 43 -125s-14.5 -93.333 -43.5 -124s-65.167 -46 -108.5 -46c-42 0 -77.833 15.333 -107.5 46s-44.5 72 -44.5 124z" />
    <glyph glyph-name="semicolon" unicode=";" horiz-adv-x="509" 
d="M66 -246c19.333 35.333 38.167 74.168 56.5 116.501s27.5 79.5 27.5 111.5c0 26 -3.83301 51.5 -11.5 76.5s-11.5 53.833 -11.5 86.5v11c0 44 12.667 80.167 38 108.5s53 42.5 83 42.5c96.667 0 145 -60 145 -180c-2.66699 -35.333 -10.5 -71.833 -23.5 -109.5
s-29 -75.334 -48 -113.001s-40.167 -74.5 -63.5 -110.5l-68 -103l-62.5 31.5zM102.001 821.002c0 52 14.667 93.667 44 125s65.333 47 108 47c44 0 80.333 -15.667 109 -47s43 -73 43 -125s-14.5 -93.333 -43.5 -124s-65.167 -46 -108.5 -46c-42 0 -77.833 15.333 -107.5 46
s-44.5 72 -44.5 124z" />
    <glyph glyph-name="less" unicode="&#x3c;" horiz-adv-x="903" 
d="M96 629v94l664 405v-215l-369 -237l369 -242v-211z" />
    <glyph glyph-name="equal" unicode="=" horiz-adv-x="976" 
d="M86 311v213h803v-213h-803zM86 719v213h803v-213h-803z" />
    <glyph glyph-name="greater" unicode="&#x3e;" horiz-adv-x="903" 
d="M143 223v211l369 242l-369 237v215l664 -405v-94z" />
    <glyph glyph-name="question" unicode="?" horiz-adv-x="770" 
d="M12 1384c8 4 20.3311 10.832 36.998 20.499s38 19 64 28s57 17.167 93 24.5s78 11 126 11c53.333 0 103.833 -6.83301 151.5 -20.5s88.834 -34.5 123.501 -62.5s62.334 -63.833 83.001 -107.5s31 -96.167 31 -157.5c0 -58.667 -7.83301 -108.5 -23.5 -149.5
s-35.167 -76.5 -58.5 -106.5s-49 -56.833 -77 -80.5s-53.5 -48.5 -76.5 -74.5s-42.5 -55.167 -58.5 -87.5s-24 -71.5 -24 -117.5c-12 0 -27.833 -1 -47.5 -3s-40.5 -4 -62.5 -6l-61.5 -5.5c-19 -1.66699 -34.833 -2.5 -47.5 -2.5c-1.33301 8 -2.33301 16.167 -3 24.5
s-1 16.166 -1 23.499c0 49.333 6.16699 92 18.5 128s27.666 68.333 45.999 97s38.5 54.834 60.5 78.501s42.167 47.834 60.5 72.501s33.666 51 45.999 79s18.5 60.333 18.5 97c0 52 -13.333 89 -40 111s-68 33 -124 33c-23.333 0 -46.166 -2 -68.499 -6
s-42.666 -8.83301 -60.999 -14.5s-34 -11.5 -47 -17.5s-21.833 -10.333 -26.5 -13zM142.998 149.999c0 52 14.667 93.667 44 125s65.333 47 108 47c44 0 80.167 -15.667 108.5 -47s42.5 -73 42.5 -125s-14.333 -93 -43 -123s-64.667 -45 -108 -45
c-42 0 -77.833 15 -107.5 45s-44.5 71 -44.5 123z" />
    <glyph glyph-name="at" unicode="@" horiz-adv-x="1632" 
d="M94 418c0 138 17.833 262.499 53.5 373.499s86.167 205.5 151.5 283.5s144.833 138.167 238.5 180.5s199.167 63.5 316.5 63.5c106.667 0 202.334 -17.833 287.001 -53.5s157 -87.167 217 -154.5s106 -149.833 138 -247.5s48 -209.5 48 -335.5
c0 -117.333 -13 -212.833 -39 -286.5s-57.333 -131 -94 -172s-75.834 -68.667 -117.501 -83s-78.834 -21.5 -111.501 -21.5c-45.333 0 -88.5 11.667 -129.5 35s-68.833 59.666 -83.5 108.999c-8 -13.333 -19 -28.666 -33 -45.999s-30.167 -33.166 -48.5 -47.499
s-39.5 -26.333 -63.5 -36s-50.333 -14.5 -79 -14.5c-35.333 0 -69.666 8.16699 -102.999 24.5s-63.333 42 -90 77s-48.167 80.5 -64.5 136.5s-24.5 123.667 -24.5 203s8.16699 148.166 24.5 206.499s37.833 106.666 64.5 144.999s57.334 67 92.001 86s70 28.5 106 28.5
c42 0 79.333 -7.83301 112 -23.5l90 -41.5c2.66699 8 4.33398 19.833 5.00098 35.5s2 27.834 4 36.501l174 -25v-596c0 -35.333 4.33301 -66 13 -92s26.667 -39 54 -39c40.667 0 73 32 97 96s36 154.333 36 271c0 204.667 -39.833 362.334 -119.5 473.001
s-200.834 166 -363.501 166c-82 0 -156.833 -14.833 -224.5 -44.5s-125.334 -74.167 -173.001 -133.5s-84.5 -133.333 -110.5 -222s-39 -191.667 -39 -309c0 -220 46.167 -389.667 138.5 -509s227.833 -179 406.5 -179c44 0 83 2.66699 117 8s61.333 9.33301 82 12l36 -176
l-108.5 -18.5c-49 -8.33301 -102.833 -12.5 -161.5 -12.5c-114.667 0 -216.667 20.833 -306 62.5s-164.833 100.5 -226.5 176.5s-108.5 167.5 -140.5 274.5s-48 225.5 -48 355.5zM680 419.999c0 -186 41 -279 123 -279c31.333 0 57.833 12 79.5 36s38.167 46.333 49.5 67
v411l-49 38c-19.333 14.667 -42 22 -68 22c-48 0 -82.5 -27 -103.5 -81s-31.5 -125.333 -31.5 -214z" />
    <glyph glyph-name="A" unicode="A" horiz-adv-x="1132" 
d="M23 0l374 1348h344l369 -1348h-301l-61 233h-377l-62 -233h-286zM414 430h291.001c-12 58.667 -25.333 119.167 -40 181.5l-41.5 180.5l-36 163.5c-11 51 -19.833 94.833 -26.5 131.5c-6.66699 -36.667 -15.834 -80.5 -27.501 -131.5l-37 -163.5l-41 -180.5z" />
    <glyph glyph-name="B" unicode="B" horiz-adv-x="1048" 
d="M127 0l0.00292969 1348c34 0 83.167 2 147.5 6s129.833 6 196.5 6c162.667 0 281.5 -25.667 356.5 -77s112.5 -141 112.5 -269c0 -78 -16.333 -143 -49 -195s-69.667 -91 -111 -117c28.667 -9.33301 55.667 -21.833 81 -37.5s47.166 -35.834 65.499 -60.501
s33 -54.667 44 -90s16.5 -77 16.5 -125c0 -136.667 -40.333 -238 -121 -304s-208.334 -99 -383.001 -99c-72.667 0 -141.334 2.33301 -206.001 7s-114.667 7 -150 7zM399.003 197.001c10.667 0 21.666 -0.333984 32.999 -1.00098s22.333 -1 33 -1
c80.667 0 140.834 15 180.501 45s59.5 85.333 59.5 166c0 62.667 -19.167 109.334 -57.5 140.001s-93.833 46 -166.5 46c-15.333 0 -30 -0.333008 -44 -1s-26.667 -1.66699 -38 -3v-391zM399.002 758c10.667 0 21.668 -0.333008 33.001 -1s22.333 -1 33 -1
c39.333 0 72.333 5.83301 99 17.5s48 27.167 64 46.5c14.667 20 25.334 42.333 32.001 67c5.33301 20.667 8 42 8 64v14c-2.66699 62.667 -16.334 109.667 -41.001 141s-73.334 47 -146.001 47c-15.333 0 -30 -0.333008 -44 -1s-26.667 -1.66699 -38 -3v-391z" />
    <glyph glyph-name="C" unicode="C" horiz-adv-x="976" 
d="M68 672c0 237.333 45.6689 413.669 137.002 529.002s228.333 173 411 173c42 0 80.5 -2.66699 115.5 -8s65.833 -11.833 92.5 -19.5s49 -14.834 67 -21.501s31 -11.334 39 -14.001l-19.5 -107.5l-19.5 -107.5c-19.333 8 -49.5 18.5 -90.5 31.5s-85.833 19.5 -134.5 19.5
c-58.667 0 -107.167 -10 -145.5 -30s-69.166 -49.333 -92.499 -88s-39.666 -88 -48.999 -148s-14 -129.667 -14 -209c0 -80.667 4.66699 -150.667 14 -210s25.666 -108.5 48.999 -147.5s54.166 -68.333 92.499 -88s86.833 -29.5 145.5 -29.5c49.333 0 94.333 6.5 135 19.5
s70.667 23.5 90 31.5l19.5 -107.5l19.5 -107.5c-8 -2.66699 -21 -7.5 -39 -14.5s-40.333 -14.167 -67 -21.5s-57.334 -13.833 -92.001 -19.5s-73.334 -8.5 -116.001 -8.5c-182.667 0 -319.667 57.667 -411 173s-137 292 -137 530z" />
    <glyph glyph-name="D" unicode="D" horiz-adv-x="1138" 
d="M127 0l0.000976562 1348c32.667 0 80 2 142 6s133.333 6 214 6c94 0 177.667 -10 251 -30s134.833 -55.5 184.5 -106.5s87.5 -120.833 113.5 -209.5s39 -202.667 39 -342c0 -136.667 -13 -249 -39 -337s-63.833 -158 -113.5 -210s-111 -88.167 -184 -108.5
s-156.833 -30.5 -251.5 -30.5c-79.333 0 -150.333 2.33301 -213 7s-110.334 7 -143.001 7zM412.001 211c15.333 -1.33301 30.998 -1.99902 46.998 -1.99902h51c94 0 162.167 38.5 204.5 115.5s63.5 192.833 63.5 347.5c0 161.333 -21.167 279.166 -63.5 353.499
s-111.166 111.5 -206.499 111.5c-15.333 0 -31.166 -0.333008 -47.499 -1s-32.5 -1.66699 -48.5 -3v-922z" />
    <glyph glyph-name="E" unicode="E" horiz-adv-x="921" 
d="M127 0v1348h729v-232h-442v-311h336v-217h-336v-357h442v-231h-729z" />
    <glyph glyph-name="F" unicode="F" horiz-adv-x="868" 
d="M127 0v1348h704v-232h-417v-368h348v-218h-348v-530h-287z" />
    <glyph glyph-name="G" unicode="G" horiz-adv-x="1064" 
d="M68 672c0 237.333 45.666 413.668 136.999 529.001s228.333 173 411 173c42 0 82.667 -2.66699 122 -8s74.333 -11.833 105 -19.5s56.834 -14.834 78.501 -21.501l45.5 -14l-19.5 -107.5l-19.5 -107.5c-9.33301 4 -23.666 9 -42.999 15s-41.333 11.5 -66 16.5
s-50.334 9.5 -77.001 13.5s-52 6 -76 6c-58.667 0 -107.167 -10 -145.5 -30s-69.166 -49.333 -92.499 -88s-39.666 -88 -48.999 -148s-14 -129.667 -14 -209c0 -80.667 4.66699 -150.667 14 -210s25.666 -108.5 48.999 -147.5s54.166 -68.333 92.499 -88
s86.833 -29.5 145.5 -29.5h27.5c9 0 18.833 0.666992 29.5 2v358h-141v227h426v-751l-50 -14.5c-24 -7 -53.5 -14.167 -88.5 -21.5s-74 -13.833 -117 -19.5s-88.5 -8.5 -136.5 -8.5c-182.667 0 -319.667 57.667 -411 173s-137 292 -137 530z" />
    <glyph glyph-name="H" unicode="H" horiz-adv-x="1189" 
d="M127 0v1348h285v-564h366v564h283v-1348h-283v557h-366v-557h-285z" />
    <glyph glyph-name="I" unicode="I" horiz-adv-x="540" 
d="M127 0v1348h285v-1348h-285z" />
    <glyph glyph-name="J" unicode="J" horiz-adv-x="555" 
d="M-43 -338c2.66699 35.333 5 70.499 7 105.499s4.33301 70.167 7 105.5c42 4 77 26.667 105 68c27.333 19.333 46.5 48.333 57.5 87s16.5 97 16.5 175v1145h282v-1082c0 -126.667 -8.83301 -229.667 -26.5 -309s-44 -141.166 -79 -185.499s-77.667 -74.333 -128 -90
s-108.833 -23.5 -175.5 -23.5c-10.667 0 -21.667 0.333008 -33 1s-22.333 1.66699 -33 3z" />
    <glyph glyph-name="K" unicode="K" horiz-adv-x="1103" 
d="M127 0v1348h285v-590l329 590h318l-381 -611l210.5 -368.5l211.5 -368.5h-338l-350 657v-657h-285z" />
    <glyph glyph-name="L" unicode="L" horiz-adv-x="843" 
d="M127 0v1348h285v-1117h399l-18 -231h-666z" />
    <glyph glyph-name="M" unicode="M" horiz-adv-x="1417" 
d="M51 0l128.995 1348h277c6.66699 -19.333 16.5 -49.833 29.5 -91.5l44 -143.5l52 -172l52 -176l44 -156.5l30.5 -110.5c6.66699 26 16.834 62.5 30.501 109.5l45 155.5l52 176l53 173l45 144.5c13 41.667 23.167 72.167 30.5 91.5h278l123 -1348h-287
c-1.33301 23.333 -3.66602 56.5 -6.99902 99.5s-6.66602 91.5 -9.99902 145.5s-7.5 111 -12.5 171s-9.16699 117.667 -12.5 173s-6.66602 106.833 -9.99902 154.5s-5.66602 85.834 -6.99902 114.501l-27.5 -94.5l-39 -135l-45 -154.5l-45 -151.5l-38 -127
c-11 -37.667 -19.167 -64.5 -24.5 -80.5h-195l-25.5 80l-39 125.5l-45 150.5l-46 153.5c-15 49 -28.333 94.333 -40 136s-20.167 74.167 -25.5 97.5l-57 -858h-277z" />
    <glyph glyph-name="N" unicode="N" horiz-adv-x="1183" 
d="M127 0v1348h256l214 -423l212 -423h4c0 13.333 -1 34.333 -3 63s-3 57.334 -3 86.001v697h250v-1348h-254l-430 850h-2c0 -13.333 1 -34.166 3 -62.499s3 -58.166 3 -89.499v-698h-250z" />
    <glyph glyph-name="O" unicode="O" horiz-adv-x="1167" 
d="M68 674c0 238.667 44.335 414.667 133.002 528s215.667 170 381 170s292.666 -56.667 381.999 -170s134 -289.333 134 -528s-44.833 -415.167 -134.5 -529.5s-216.834 -171.5 -381.501 -171.5c-165.333 0 -292.333 57 -381 171s-133 290.667 -133 530zM360.002 674
c0 -150 17.168 -266.333 51.501 -349s91.166 -124 170.499 -124c80.667 0 138.334 41.333 173.001 124s52 199 52 349s-17.833 266 -53.5 348s-92.834 123 -171.501 123c-78 0 -134.5 -41 -169.5 -123s-52.5 -198 -52.5 -348z" />
    <glyph glyph-name="P" unicode="P" horiz-adv-x="1015" 
d="M127 0l-0.000976562 1348c18 0 40.167 0.666992 66.5 2s55.333 2.66602 87 3.99902l98.5 4c34 1.33301 67.333 2 100 2c174.667 0 299.334 -39 374.001 -117s112 -192.667 112 -344c0 -84.667 -12 -156.334 -36 -215.001s-57.167 -106.167 -99.5 -142.5
s-91.5 -62.333 -147.5 -78s-116.667 -23.5 -182 -23.5c-18 0 -34.833 0.333008 -50.5 1s-31.167 1.66699 -46.5 3v-444h-276zM402.999 653.002l75.999 -0.000976562c58.667 0 106.5 17.833 143.5 53.5s55.5 99.834 55.5 192.501c0 83.333 -16.5 144.833 -49.5 184.5
s-79.5 59.5 -139.5 59.5h-41.5c-14.333 0 -29.166 -0.666992 -44.499 -2v-488z" />
    <glyph glyph-name="Q" unicode="Q" horiz-adv-x="1167" 
d="M68 674c0 238.667 44.332 414.668 132.999 528.001s215.667 170 381 170s292.666 -56.667 381.999 -170s134 -289.333 134 -528c0 -164 -20.833 -297.833 -62.5 -401.5s-102.834 -180.167 -183.501 -229.5c39.333 -35.333 79.833 -64.333 121.5 -87
s75.5 -39.334 101.5 -50.001l-125 -189c-9.33301 2.66699 -26.666 8.5 -51.999 17.5s-54.666 23.333 -87.999 43s-70.166 45.167 -110.499 76.5s-79.5 71 -117.5 119c-165.333 0 -292.333 57 -381 171s-133 290.667 -133 530zM359.999 674.001
c0 -150 17.168 -266.333 51.501 -349s91.166 -124 170.499 -124c80.667 0 138.334 41.333 173.001 124s52 199 52 349s-17.833 266 -53.5 348s-92.834 123 -171.501 123c-78 0 -134.5 -41 -169.5 -123s-52.5 -198 -52.5 -348z" />
    <glyph glyph-name="R" unicode="R" horiz-adv-x="1058" 
d="M127 0l-0.000976562 1348c35.333 0 86.833 2 154.5 6s136.834 6 207.501 6c165.333 0 288.666 -32.833 369.999 -98.5s122 -178.167 122 -337.5c0 -54.667 -6.16699 -102.834 -18.5 -144.501s-29 -77.834 -50 -108.501s-45.167 -56 -72.5 -76s-55.333 -35.333 -84 -46
l262 -549h-301l-215 512c-26 0 -48.167 0.666992 -66.5 2s-31.166 2 -38.499 2v-516h-270zM396.999 723.002c10.667 0 28 -1 52 -3s49 -3 75 -3c54.667 0 96.667 17.333 126 52s44 87.667 44 159c0 72.667 -14.333 126.667 -43 162s-75.667 53 -141 53
c-18 0 -36.167 -0.333008 -54.5 -1s-37.833 -1.66699 -58.5 -3v-416z" />
    <glyph glyph-name="S" unicode="S" horiz-adv-x="917" 
d="M47 74l65.9971 206.998c9.33301 -4 23.166 -10.5 41.499 -19.5s39.5 -18 63.5 -27s49.667 -17.167 77 -24.5s54.666 -11 81.999 -11c24.667 0 48.834 3 72.501 9s45.167 15.167 64.5 27.5s34.833 28 46.5 47s17.5 42.167 17.5 69.5c0 38 -12.667 70.833 -38 98.5
s-56.833 53.667 -94.5 78l-122 75.5c-43.667 26 -84.334 56 -122.001 90s-69 74 -94 120s-37.5 102.333 -37.5 169c0 120 37.833 214.833 113.5 284.5s181.834 104.5 318.501 104.5c50.667 0 96 -3.66699 136 -11s74.667 -16.166 104 -26.499s54 -20.333 74 -30
s35.333 -16.5 46 -20.5l-65 -207c-10.667 4 -25.334 10.5 -44.001 19.5s-39.667 18 -63 27s-48.666 17.167 -75.999 24.5s-54.666 11 -81.999 11c-31.333 0 -57.833 -5.16699 -79.5 -15.5s-39.667 -23 -54 -38s-24.666 -31.333 -30.999 -49s-9.5 -33.167 -9.5 -46.5
c0 -40.667 12.667 -76.167 38 -106.5s56.833 -58.166 94.5 -83.499s78.334 -50.833 122.001 -76.5s84.334 -55 122.001 -88s69 -71.667 94 -116s37.5 -97.833 37.5 -160.5c0 -128.667 -37.5 -228.5 -112.5 -299.5s-186.833 -106.5 -335.5 -106.5
c-52 0 -98.167 4.5 -138.5 13.5s-75.833 19.333 -106.5 31s-56.667 23 -78 34s-37.333 18.5 -48 22.5z" />
    <glyph glyph-name="T" unicode="T" horiz-adv-x="903" 
d="M31 1116v232h841l-2 -232h-276v-1116h-285v1116h-278z" />
    <glyph glyph-name="U" unicode="U" horiz-adv-x="1134" 
d="M111 633l-0.00195312 715h284v-715c0 -75.333 1.83301 -140 5.5 -194s11.167 -98.667 22.5 -134s28.333 -61.5 51 -78.5s53.667 -25.5 93 -25.5s70.333 8.5 93 25.5s39.834 43.167 51.501 78.5s18.834 80 21.501 134s4 118.667 4 194v715h281v-715
c0 -118.667 -7.83301 -220 -23.5 -304s-41.334 -152.333 -77.001 -205s-82.167 -91 -139.5 -115s-127.666 -36 -210.999 -36c-82 0 -152 12 -210 36s-105.333 62.333 -142 115s-63.167 121 -79.5 205s-24.5 185.333 -24.5 304z" />
    <glyph glyph-name="V" unicode="V" horiz-adv-x="1083" 
d="M25 1348h292l205 -928l25 -203l24 203l205 928h293l-377 -1348h-291z" />
    <glyph glyph-name="W" unicode="W" horiz-adv-x="1513" 
d="M20 1348h287l166 -912l176 805h221l177 -805l167 912h277l-281 -1348h-268l-184 858l-193 -858h-264z" />
    <glyph glyph-name="X" unicode="X" horiz-adv-x="1101" 
d="M6 0l379 678.002l-362 670h327c8 -19.333 21.333 -49.833 40 -91.5l59.5 -135l60.5 -139.5c19.333 -44.667 33 -77.667 41 -99c8 23.333 21.667 57.166 41 101.499l61.5 138l61 134l41.5 91.5h323l-362 -672l190 -338l189 -338h-336c-8 19.333 -22 50.166 -42 92.499
l-62.5 135l-62.5 139c-20 45 -34 80.5 -42 106.5c-9.33301 -24.667 -24.333 -59.5 -45 -104.5l-63.5 -140l-62.5 -136l-44 -92.5h-330z" />
    <glyph glyph-name="Y" unicode="Y" horiz-adv-x="1081" 
d="M-4 1348h305l72 -191.5l68.5 -184.5l58 -159l41.5 -113l40.5 113l58.5 159l68.5 184l71.5 192h305l-183 -412l-183 -410l-35 -82v-444h-285v444l-37 82l-183 410z" />
    <glyph glyph-name="Z" unicode="Z" horiz-adv-x="952" 
d="M57 0v184l504 934h-489v230h807v-185l-250 -467l-252 -467h510v-229h-830z" />
    <glyph glyph-name="bracketleft" unicode="[" horiz-adv-x="636" 
d="M160 -295v1854h456v-189h-225v-1476h225v-189h-456z" />
    <glyph glyph-name="backslash" unicode="\" horiz-adv-x="800" 
d="M-10 1470h248l171 -555l160.5 -508.5l135 -413.5c39.667 -119.333 71.167 -209 94.5 -269h-248c-23.333 60 -54.833 149.667 -94.5 269l-135 413.5l-161.5 509z" />
    <glyph glyph-name="bracketright" unicode="]" horiz-adv-x="636" 
d="M23 -106h225v1476h-225v186h456v-1851h-456v189z" />
    <glyph glyph-name="asciicircum" unicode="^" horiz-adv-x="886" 
d="M98 1073l310 311h73l310 -311l-117 -121l-113.5 105.5l-116.5 105.5l-115.5 -105l-113.5 -106z" />
    <glyph glyph-name="underscore" unicode="_" horiz-adv-x="980" 
d="M23 -158h935v-204h-935v204z" />
    <glyph glyph-name="grave" unicode="`" horiz-adv-x="735" 
d="M104 1477l154 149l285 -342l-119 -110z" />
    <glyph glyph-name="a" unicode="a" horiz-adv-x="956" 
d="M47 293c0 130 40.998 222.834 122.998 278.501s204.333 83.5 367 83.5l47 -4v25c0 42 -4.5 75.667 -13.5 101s-21.333 44.833 -37 58.5s-34.167 22.5 -55.5 26.5s-44.666 6 -69.999 6c-46.667 0 -94.167 -5 -142.5 -15s-86.166 -20 -113.499 -30l-31 189l60.5 19
c23.667 7.33301 50.167 14.166 79.5 20.499s60.333 11.833 93 16.5s66.334 7 101.001 7c140.667 0 243 -33 307 -99s96 -168.667 96 -308v-668h-254c-2.66699 19.333 -5 38.5 -7 57.5s-4.33301 38.167 -7 57.5c-6.66699 -6.66699 -16.167 -17.667 -28.5 -33
s-28.833 -30.833 -49.5 -46.5s-46.334 -29.667 -77.001 -42s-66.334 -18.5 -107.001 -18.5c-38 0 -74.167 6.16699 -108.5 18.5s-64.166 31.5 -89.499 57.5s-45.5 58.833 -60.5 98.5s-22.5 87.5 -22.5 143.5zM312.998 326.001c0 -48 9.66797 -84.998 29.001 -110.998
s49.333 -39 90 -39c22 0 41.167 3.16699 57.5 9.5s30.666 14.166 42.999 23.499s22.5 19.166 30.5 29.499s15 18.833 21 25.5v232h-27.5c-9 0 -18.5 0.666992 -28.5 2c-78 0 -133.333 -12.333 -166 -37s-49 -69.667 -49 -135z" />
    <glyph glyph-name="b" unicode="b" 
d="M100 0l0.00195312 1473l277 40v-581c13.333 13.333 29.666 28.666 48.999 45.999s40.5 33.166 63.5 47.499s48.5 26.166 76.5 35.499s57.667 14 89 14c45.333 0 88.166 -10.167 128.499 -30.5s75.5 -52.333 105.5 -96s53.833 -99 71.5 -166s26.5 -147.5 26.5 -241.5
c0 -91.333 -9.83301 -171.833 -29.5 -241.5s-46.334 -127.834 -80.001 -174.501s-72.667 -81.5 -117 -104.5s-91.833 -34.5 -142.5 -34.5c-35.333 0 -66.333 4.33301 -93 13s-50.167 19.834 -70.5 33.501s-38.666 28.334 -54.999 44.001s-30.833 30.5 -43.5 44.5l-22 -121
h-234zM377.002 279.002c20.667 -15.333 41.5 -29.166 62.5 -41.499s43.167 -18.5 66.5 -18.5c66.667 0 116 23.167 148 69.5s48 122.833 48 229.5c0 121.333 -13.5 205.666 -40.5 252.999s-67.167 71 -120.5 71c-19.333 0 -37.5 -3.5 -54.5 -10.5s-32.667 -15.5 -47 -25.5
s-27 -20.5 -38 -31.5s-19.167 -20.833 -24.5 -29.5v-466z" />
    <glyph glyph-name="c" unicode="c" horiz-adv-x="788" 
d="M57 510c0 191.333 38.001 333.333 114.001 426s186.333 139 331 139c57.333 0 107.833 -5.5 151.5 -16.5s75.167 -19.833 94.5 -26.5l-33 -203c-13.333 5.33301 -36.5 12.166 -69.5 20.499s-67.833 12.5 -104.5 12.5c-68 0 -118.167 -27 -150.5 -81
s-48.5 -141 -48.5 -261c0 -121.333 16.667 -206.666 50 -255.999s80 -74 140 -74c42 0 80.167 8 114.5 24s59.166 26.667 74.499 32l63 -176c-9.33301 -4 -22.833 -11.167 -40.5 -21.5s-39.167 -21 -64.5 -32s-54.333 -20.667 -87 -29s-69 -12.5 -109 -12.5
c-138 0 -243.5 43.5 -316.5 130.5s-109.5 221.833 -109.5 404.5z" />
    <glyph glyph-name="d" unicode="d" 
d="M55 504c0 105.333 11.666 194.167 34.999 266.5s54.833 130.666 94.5 174.999s85.334 76.333 137.001 96s106.167 29.5 163.5 29.5c28.667 0 58.5 -4 89.5 -12s62.167 -19 93.5 -33v447l274 40v-1513h-233l-17 123c-16.667 -18 -35.5 -35.5 -56.5 -52.5
s-44.167 -32.667 -69.5 -47s-53.333 -26 -84 -35s-63 -13.5 -97 -13.5c-45.333 0 -88 10 -128 30s-74.667 51.167 -104 93.5s-53 96.833 -71 163.5s-27 147.334 -27 242.001zM341.999 528.001c0 -61.333 3.33301 -112.5 10 -153.5s16.834 -74 30.501 -99
s30.5 -42.667 50.5 -53s43 -15.5 69 -15.5c35.333 0 67.666 10.5 96.999 31.5s52.333 43.167 69 66.5v518c-19.333 10.667 -40 19.5 -62 26.5s-44.333 10.5 -67 10.5c-66.667 0 -116.167 -24.5 -148.5 -73.5s-48.5 -135.167 -48.5 -258.5z" />
    <glyph glyph-name="e" unicode="e" horiz-adv-x="935" 
d="M57 498c0 98 11.3301 183.167 33.9971 255.5s53.167 132.5 91.5 180.5s83 83.5 134 106.5s105.833 34.5 164.5 34.5s112.334 -9.16699 161.001 -27.5s90.334 -47.666 125.001 -87.999s62 -91.166 82 -152.499s30 -135 30 -221c0 -36.667 -1.83301 -68.334 -5.5 -95.001
s-6.16699 -43 -7.5 -49h-534c1.33301 -91.333 21.833 -157.166 61.5 -197.499s88.834 -60.5 147.501 -60.5c54.667 0 104.167 9.33301 148.5 28l103.5 44l55 -180c-8 -5.33301 -21.667 -13.5 -41 -24.5s-44.333 -22.333 -75 -34s-66.5 -21.667 -107.5 -30
s-86.833 -12.5 -137.5 -12.5c-60 0 -115.833 10 -167.5 30s-97 51.167 -136 93.5s-69.833 96.166 -92.5 161.499s-34 144.666 -34 237.999zM331.997 614l280.002 -0.00195312c0 52 -3.33301 95.167 -10 129.5s-15.834 61.333 -27.501 81s-25.667 33.667 -42 42
s-34.166 12.5 -53.499 12.5c-18 0 -35.833 -4.5 -53.5 -13.5s-33.334 -23.667 -47.001 -44s-24.834 -47.666 -33.501 -81.999s-13 -76.166 -13 -125.499z" />
    <glyph glyph-name="f" unicode="f" horiz-adv-x="632" 
d="M25 850l-0.00195312 203.001h112v123c0 125.333 21.833 216.666 65.5 273.999s112.834 86 207.501 86c65.333 0 115.333 -5.5 150 -16.5s59 -19.167 73 -24.5l-4 -98c-1.33301 -32.667 -3.33301 -65.667 -6 -99c-8 2.66699 -23 6.5 -45 11.5s-46.667 7.5 -74 7.5
c-35.333 0 -59.166 -13 -71.499 -39s-18.5 -73 -18.5 -141v-84h188v-203h-188v-850h-277v850h-112z" />
    <glyph glyph-name="g" unicode="g" 
d="M55 489c0 95.333 10 179.332 30 251.999s47 132.834 81 180.501s72.833 83.5 116.5 107.5s90.167 36 139.5 36c60 0 109.833 -14 149.5 -42s78.5 -66 116.5 -114c4 23.333 7.83301 47.333 11.5 72s6.83398 48.667 9.50098 72h233v-1139
c0 -136.667 -31.333 -238.834 -94 -306.501s-162.334 -101.5 -299.001 -101.5c-36.667 0 -72.167 2.5 -106.5 7.5s-66.5 10.5 -96.5 16.5s-56.667 12.833 -80 20.5l-59 19.5l31 188c27.333 -9.33301 65.166 -19.166 113.499 -29.499s97.833 -15.5 148.5 -15.5
c24.667 0 47.167 2.16699 67.5 6.5s38 13.333 53 27s27 33 36 58s13.5 58.833 13.5 101.5v211h-2c-13.333 -16.667 -29.666 -33.167 -48.999 -49.5s-41 -31.333 -65 -45s-50 -25 -78 -34s-58.333 -13.5 -91 -13.5c-46.667 0 -90 10.333 -130 31s-74.833 52.167 -104.5 94.5
s-53 95.5 -70 159.5s-25.5 140.333 -25.5 229zM342 515.999c0 -57.333 3.33301 -105.833 10 -145.5s16.5 -71.334 29.5 -95.001s28.833 -40.667 47.5 -51s39.667 -15.5 63 -15.5c40.667 0 76.334 12.333 107.001 37s53.667 48.334 69 71.001v418
c-36.667 39.333 -67.334 66.333 -92.001 81s-52 22 -82 22c-64 0 -105.333 -27.333 -124 -82s-28 -134.667 -28 -240z" />
    <glyph glyph-name="h" unicode="h" horiz-adv-x="1036" 
d="M100 0l-0.000976562 1473l277 40v-595h4c6.66699 6.66699 17.834 18.5 33.501 35.5s35.5 34.667 59.5 53s52.333 34.333 85 48s70.334 20.5 113.001 20.5c96.667 0 165.5 -30 206.5 -90s61.5 -152 61.5 -276v-709h-276v641c0 75.333 -7.66699 126.666 -23 153.999
s-44 41 -86 41c-20.667 0 -40.5 -4.83301 -59.5 -14.5s-36.333 -20.667 -52 -33s-29.334 -25 -41.001 -38s-20.167 -22.833 -25.5 -29.5v-721h-277z" />
    <glyph glyph-name="i" unicode="i" horiz-adv-x="489" 
d="M92 1374c0 49.333 15 89.666 45 120.999s67 47 111 47s80.833 -15.667 110.5 -47s44.5 -71.666 44.5 -120.999s-15 -89.333 -45 -120s-66.667 -46 -110 -46c-44 0 -81 15.333 -111 46s-45 70.667 -45 120zM106 0v1032l277 41v-1073h-277z" />
    <glyph glyph-name="j" unicode="j" horiz-adv-x="499" 
d="M-45 -473l12.002 202.999c27.333 2.66699 50.666 8 69.999 16s34.666 20.167 45.999 36.5s19.833 38.5 25.5 66.5s8.5 63.333 8.5 106v1077l274 41v-1145c0 -75.333 -7.16699 -139.166 -21.5 -191.499s-35.166 -94.833 -62.499 -127.5s-61.833 -56.5 -103.5 -71.5
s-89.834 -22.5 -144.501 -22.5c-19.333 0 -37.333 1.33301 -54 4zM96.002 1374c0 49.333 15.333 89.666 46 120.999s68 47 112 47c42 0 78.167 -15.667 108.5 -47s45.5 -71.666 45.5 -120.999s-15.167 -89.333 -45.5 -120s-66.5 -46 -108.5 -46
c-44 0 -81.333 15.333 -112 46s-46 70.667 -46 120z" />
    <glyph glyph-name="k" unicode="k" horiz-adv-x="974" 
d="M102 0v1473l275 40v-917l266 457h309l-338 -469l375 -584h-330l-282 502v-502h-275z" />
    <glyph glyph-name="l" unicode="l" horiz-adv-x="477" 
d="M100 0v1473l277 40v-1513h-277z" />
    <glyph glyph-name="m" unicode="m" horiz-adv-x="1468" 
d="M106 0v1053h244l12 -142c8 9.33301 19 23 33 41s31.5 36.167 52.5 54.5s46.167 34.333 75.5 48s64 20.5 104 20.5c60 0 108.333 -11.5 145 -34.5s62.667 -65.5 78 -127.5c8 12 19.833 27 35.5 45s34.5 35.833 56.5 53.5s47.667 32.667 77 45s62.333 18.5 99 18.5
c90 0 154.833 -27.667 194.5 -83s59.5 -149 59.5 -281v-711h-274v688c0 46.667 -5.5 83 -16.5 109s-34.167 39 -69.5 39c-18 0 -34.833 -4.5 -50.5 -13.5s-29.667 -19.667 -42 -32s-22.5 -25 -30.5 -38l-19 -31.5v-721h-264v688c0 46.667 -5.5 83 -16.5 109
s-34.167 39 -69.5 39c-18 0 -34.833 -4.5 -50.5 -13.5s-29.5 -19.667 -41.5 -32s-22.167 -25 -30.5 -38s-14.5 -23.5 -18.5 -31.5v-721h-273z" />
    <glyph glyph-name="n" unicode="n" horiz-adv-x="1040" 
d="M106 0l0.000976562 1053h244l12 -135h5l35.5 35.5c17 17 38.5 34.667 64.5 53s56.333 34.333 91 48s74 20.5 118 20.5c96.667 0 165.5 -30 206.5 -90s61.5 -152 61.5 -276v-709h-276v641c0 75.333 -7.5 126.666 -22.5 153.999s-43.833 41 -86.5 41
c-20.667 0 -40.5 -4.83301 -59.5 -14.5s-36.333 -20.667 -52 -33s-29.334 -25 -41.001 -38s-20.167 -22.833 -25.5 -29.5v-721h-275z" />
    <glyph glyph-name="o" unicode="o" horiz-adv-x="1017" 
d="M57 526c0 98 10.667 181.999 32 251.999s51.5 127.167 90.5 171.5s86.5 76.333 142.5 96s118 29.5 186 29.5s129.667 -9.83301 185 -29.5s102.833 -51.667 142.5 -96s70.5 -101.5 92.5 -171.5s33 -154 33 -252c0 -100 -11 -184.667 -33 -254
s-52.833 -126.166 -92.5 -170.499s-87.167 -76.5 -142.5 -96.5s-117 -30 -185 -30s-130 10 -186 30s-103.5 52.167 -142.5 96.5s-69.167 101.333 -90.5 171s-32 154.167 -32 253.5zM342 525.999c0 -124 13.333 -213 40 -267s68.667 -81 126 -81s99.333 27 126 81
s40 143 40 267c0 122.667 -13.333 211 -40 265s-68.667 81 -126 81s-99.333 -26.833 -126 -80.5s-40 -142.167 -40 -265.5z" />
    <glyph glyph-name="p" unicode="p" 
d="M100 -469l-0.000976562 1522h256l13 -140h4c9.33301 13.333 22.5 29.333 39.5 48s37.167 36.5 60.5 53.5s50.333 31.333 81 43s63.667 17.5 99 17.5c46.667 0 90.167 -10.5 130.5 -31.5s75.5 -53.333 105.5 -97s53.833 -99.334 71.5 -167.001s26.5 -147.167 26.5 -238.5
c0 -96.667 -10.167 -180.667 -30.5 -252s-48.666 -130.166 -84.999 -176.499s-79 -80.833 -128 -103.5s-102.167 -34 -159.5 -34c-74 0 -143.667 13.667 -209 41v-485h-275zM376.999 201c38 -18 78.334 -27 121.001 -27c69.333 0 120.666 26.333 153.999 79s50 141 50 265
c0 121.333 -13.5 205.666 -40.5 252.999s-67.167 71 -120.5 71c-18 0 -35.5 -4.16699 -52.5 -12.5s-33 -18.666 -48 -30.999s-28 -25.333 -39 -39s-19.167 -25.167 -24.5 -34.5v-524z" />
    <glyph glyph-name="q" unicode="q" 
d="M55 506c0 91.333 10.001 172.166 30.001 242.499s47 128.666 81 174.999s73.5 81.5 118.5 105.5s92.833 36 143.5 36h6c49.333 0 93.333 -15.333 132 -46c40.667 -32 76 -68.667 106 -110c4 24.667 7 48.667 9 72s4.33301 47.333 7 72h254v-1522h-272v586h-2
c-12 -15.333 -27.333 -31.166 -46 -47.499s-40 -31.666 -64 -45.999s-50.333 -26 -79 -35s-59.334 -13.5 -92.001 -13.5c-46.667 0 -90 10 -130 30s-75.167 51.5 -105.5 94.5s-54 98 -71 165s-25.5 147.5 -25.5 241.5zM342.001 530
c0 -61.333 3.00098 -112.833 9.00098 -154.5s15.5 -74.667 28.5 -99s29.5 -41.666 49.5 -51.999s43 -15.5 69 -15.5c18 0 35.833 3.66699 53.5 11s34 16.5 49 27.5s28.167 22.667 39.5 35s20.666 23.833 27.999 34.5v418c-27.333 32.667 -56 59.667 -86 81
s-61.667 32 -95 32c-49.333 0 -85.833 -24.333 -109.5 -73s-35.5 -130.334 -35.5 -245.001z" />
    <glyph glyph-name="r" unicode="r" horiz-adv-x="688" 
d="M106 0l-0.00195312 1053h244l15 -142h2c23.333 48 55.333 87.667 96 119s84.334 47 131.001 47c20.667 0 37.5 -2.33301 50.5 -7s22.833 -8.33398 29.5 -11.001l-21 -244c-12 2.66699 -28.333 7.16699 -49 13.5s-41 9.5 -61 9.5c-27.333 0 -52.666 -8.66699 -75.999 -26
s-52 -46.333 -86 -87v-725h-275z" />
    <glyph glyph-name="s" unicode="s" horiz-adv-x="770" 
d="M37 57l47 185.001c8 -2.66699 20.167 -7.83398 36.5 -15.501s35.5 -15.167 57.5 -22.5s45 -13.833 69 -19.5s47.333 -8.5 70 -8.5c39.333 0 70 6.16699 92 18.5s33 38.166 33 77.499c0 28.667 -9.16699 54.334 -27.5 77.001s-41.833 44.5 -70.5 65.5l-91 66.5
c-32 23.333 -62.333 49 -91 77s-52.334 59.5 -71.001 94.5s-28 76.167 -28 123.5c0 94 30.833 167.333 92.5 220s149.167 79 262.5 79c69.333 0 126.5 -5.5 171.5 -16.5s77.167 -19.833 96.5 -26.5l-8 -101l-8 -100l-84.5 22.5c-41 11 -82.5 16.5 -124.5 16.5
c-87.333 0 -131 -27.333 -131 -82c0 -26 9.83301 -49.5 29.5 -70.5s44.167 -41.667 73.5 -62l95.5 -64.5c34.333 -22.667 66.166 -48 95.499 -76s53.833 -60.5 73.5 -97.5s29.5 -79.833 29.5 -128.5c0 -44 -6.83301 -85 -20.5 -123s-35.167 -71 -64.5 -99
s-66.833 -50.333 -112.5 -67s-100.5 -25 -164.5 -25c-44 0 -83.667 3.5 -119 10.5s-66.666 15 -93.999 24s-50.666 17.833 -69.999 26.5s-34.333 15.667 -45 21z" />
    <glyph glyph-name="t" unicode="t" horiz-adv-x="677" 
d="M25 850v203.001h112v254l275 41v-295h225v-203h-225v-506c0 -45.333 5.33301 -78.833 16 -100.5s32 -32.5 64 -32.5c31.333 0 58.833 4.83301 82.5 14.5s39.167 15.167 46.5 16.5l26 -197c-8 -2.66699 -19.167 -7.83398 -33.5 -15.501s-31.833 -15.5 -52.5 -23.5
s-44.5 -15.167 -71.5 -21.5s-57.167 -9.5 -90.5 -9.5c-95.333 0 -162.833 25 -202.5 75s-59.5 135 -59.5 255v545h-112z" />
    <glyph glyph-name="u" unicode="u" horiz-adv-x="1038" 
d="M96 342l-0.000976562 710.998h277v-574c0 -50.667 1 -92.667 3 -126s7 -60.166 15 -80.499s19.667 -34.666 35 -42.999s35 -12.5 59 -12.5c19.333 0 37.833 4.5 55.5 13.5s34.334 19.667 50.001 32s29.334 25.333 41.001 39l27.5 32.5v719h277v-1053h-240l-16 141
l-57 -51l-34 -29.5c-14.667 -13 -32.834 -25.667 -54.501 -38s-46.5 -23.333 -74.5 -33s-59 -14.5 -93 -14.5c-96.667 0 -166 30.167 -208 90.5s-63 152.5 -63 276.5z" />
    <glyph glyph-name="v" unicode="v" horiz-adv-x="958" 
d="M18 1053h283l100 -437l76 -438l76 438l100 437h283l-309 -1053h-299z" />
    <glyph glyph-name="w" unicode="w" horiz-adv-x="1435" 
d="M23 1053h272l154 -713l159 713h230l168 -713l145 713h262l-278 -1053h-263l-159 684l-172 -684h-252z" />
    <glyph glyph-name="x" unicode="x" horiz-adv-x="935" 
d="M10 0l298.999 545.002l-278 508h297c6.66699 -13.333 16.5 -36.5 29.5 -69.5l42 -105l43 -108.5c13.667 -35.333 23.834 -63.333 30.501 -84c1.33301 0 5.5 8.83301 12.5 26.5l25.5 66.5l33.5 86l34 87c10.333 27.333 18.833 50.666 25.5 69.999s10.667 29.666 12 30.999
h289l-139.5 -258l-140.5 -258l299 -537h-295c-8 15.333 -19.667 39.333 -35 72l-48.5 107.5l-49 114.5c-15.667 37.333 -27.5 67.666 -35.5 90.999c-8 -23.333 -19.667 -53.666 -35 -90.999l-47.5 -114.5l-46 -107.5l-31.5 -72h-291z" />
    <glyph glyph-name="y" unicode="y" horiz-adv-x="940" 
d="M14 1053h289l21.5 -87.5l30 -126l35 -147.5l34.5 -151.5l29.5 -138c9 -43 16.167 -78.833 21.5 -107.5c8 44 20.333 102.5 37 175.5l50.5 223l50 213l36.5 146.5h279l-346 -1112c-22 -69.333 -47.667 -127 -77 -173s-59.333 -84 -90 -114s-60.667 -53.5 -90 -70.5
l-77 -44.5l-27.5 37l-35 47.5l-34 47l-26.5 36.5c8 6.66699 22 16.5 42 29.5s41.5 30.5 64.5 52.5s45.167 48.333 66.5 79s37.333 67 48 109z" />
    <glyph glyph-name="z" unicode="z" horiz-adv-x="784" 
d="M45 0v178l375 664h-350v211h659v-172l-379 -670h385v-211h-690z" />
    <glyph glyph-name="braceleft" unicode="{" horiz-adv-x="675" 
d="M88 520l0.00390625 194.999c19.333 1.33301 37.833 4.33301 55.5 9s33.667 12.834 48 24.501s25.666 27 33.999 46s12.5 44.167 12.5 75.5v312c0 92.667 7.16699 167 21.5 223s37.166 98.667 68.499 128s72.833 48.833 124.5 58.5s115.167 14.5 190.5 14.5v-176
c-46.667 0 -81.834 -4.5 -105.501 -13.5s-40.667 -23.833 -51 -44.5s-16.166 -46.667 -17.499 -78s-2 -69.333 -2 -114v-322c0 -118.667 -49.333 -198.667 -148 -240c98 -45.333 147.333 -127 148 -245v-328c0 -49.333 0.666992 -90 2 -122s7.5 -57.5 18.5 -76.5
s28.333 -32.333 52 -40s58.167 -11.5 103.5 -11.5v-176c-80.667 0 -146.834 5.83301 -198.501 17.5s-93 33.167 -124 64.5s-52.5 74.666 -64.5 129.999s-18 126.666 -18 213.999v252c0 84.667 -11.333 142.334 -34 173.001s-61.334 47.334 -116.001 50.001z" />
    <glyph glyph-name="bar" unicode="|" horiz-adv-x="546" 
d="M164 -469v2050h221v-2050h-221z" />
    <glyph glyph-name="braceright" unicode="}" horiz-adv-x="675" 
d="M31 -205c45.333 0 79.832 4.16699 103.499 12.5s41.334 22 53.001 41s18.167 43.5 19.5 73.5s2 67 2 111v340c0 114.667 49 194.334 147 239.001c-98 45.333 -147 127.333 -147 246v322c0 49.333 -0.666992 90 -2 122s-7.83301 57.5 -19.5 76.5s-29.5 32.333 -53.5 40
s-58.333 11.5 -103 11.5v176c78 0 143.167 -5.16699 195.5 -15.5s94.166 -30.5 125.499 -60.5s53.5 -71.667 66.5 -125s19.5 -123.666 19.5 -210.999v-272c0 -42 2.83301 -76.5 8.5 -103.5s14.667 -48 27 -63s28 -25.833 47 -32.5s41.5 -10.667 67.5 -12v-195
c-24.667 -1.33301 -46.5 -5 -65.5 -11s-34.667 -16.5 -47 -31.5s-21.666 -35.5 -27.999 -61.5s-9.5 -60.333 -9.5 -103v-276c0 -92.667 -7.5 -166.334 -22.5 -221.001s-38.833 -96.334 -71.5 -125.001s-75 -47.167 -127 -55.5s-114 -12.5 -186 -12.5v176z" />
    <glyph glyph-name="asciitilde" unicode="~" horiz-adv-x="1075" 
d="M78 719c12 16.667 27.999 36.167 47.999 58.5s42.833 43.333 68.5 63s54 36.667 85 51s63.5 21.5 97.5 21.5c40.667 0 76 -8.16699 106 -24.5s58.333 -34.666 85 -54.999s52.334 -38.666 77.001 -54.999s51.334 -24.5 80.001 -24.5c22 0 42.167 3.33301 60.5 10
s34.666 14.5 48.999 23.5s27 18.5 38 28.5s19.167 18.667 24.5 26l98 -125c-12 -16.667 -26.833 -36.167 -44.5 -58.5s-38.167 -43.5 -61.5 -63.5s-49.333 -37.167 -78 -51.5s-61.334 -21.5 -98.001 -21.5c-39.333 0 -74.166 8.16699 -104.499 24.5
s-58.833 34.166 -85.5 53.499s-52.5 37.166 -77.5 53.499s-51.833 24.5 -80.5 24.5c-22 0 -43.333 -3.83301 -64 -11.5s-39.167 -16.5 -55.5 -26.5s-30.333 -20.5 -42 -31.5s-20.167 -19.833 -25.5 -26.5l-49.5 68.5z" />
    <glyph glyph-name="uni00A0" unicode="&#xa0;" horiz-adv-x="430" 
 />
    <glyph glyph-name="cent" unicode="&#xa2;" horiz-adv-x="808" 
d="M59 655c0 152.667 27 272.169 81 358.502s129.667 142.5 227 168.5c-1.33301 35.333 -2.5 71.5 -3.5 108.5s-1.5 73.167 -1.5 108.5h205c0 -34 -0.333008 -67.833 -1 -101.5s-1.66699 -68.167 -3 -103.5c44 -2.66699 83.333 -8.5 118 -17.5s59.667 -16.833 75 -23.5
c-6.66699 -32.667 -12.834 -65.334 -18.501 -98.001l-16.5 -99c-13.333 5.33301 -36.833 12.166 -70.5 20.499s-69.5 12.5 -107.5 12.5c-66.667 0 -116.5 -25.5 -149.5 -76.5s-49.5 -133.167 -49.5 -246.5c0 -109.333 16 -188.666 48 -237.999s78.667 -74 140 -74
c44 0 83.833 7.16699 119.5 21.5s60.834 25.166 75.501 32.499l64 -172c-8 -2.66699 -19 -8.16699 -33 -16.5s-30.5 -17.333 -49.5 -27s-40.5 -18.5 -64.5 -26.5s-51 -14.333 -81 -19c1.33301 -32.667 2.33301 -65.667 3 -99s1 -66.333 1 -99h-205c0 34 0.5 67.667 1.5 101
s2.16699 67.333 3.5 102c-96.667 22 -172.167 73.833 -226.5 155.5s-81.5 197.5 -81.5 347.5z" />
    <glyph glyph-name="sterling" unicode="&#xa3;" horiz-adv-x="1007" 
d="M82 618l0.000976562 164.002h123c-2.66699 30 -4.66699 64.167 -6 102.5s-2 72.5 -2 102.5c0 128.667 32.667 225 98 289s160.333 96 285 96c79.333 0 145.5 -7.83301 198.5 -23.5s91.167 -28.167 114.5 -37.5l-35 -197c-18 6.66699 -46.333 15.5 -85 26.5
s-81.334 16.5 -128.001 16.5c-56 0 -96.333 -14.667 -121 -44s-37 -76 -37 -140c0 -31.333 0.833008 -63.833 2.5 -97.5l4.5 -93.5h284v-164h-270c1.33301 -22 2.33301 -45.833 3 -71.5s1 -51.5 1 -77.5c0 -48 -2.66699 -93.5 -8 -136.5s-14.333 -82.833 -27 -119.5h479
v-213h-856v180c31.333 19.333 57 40.666 77 63.999s35.333 52.666 46 87.999v131c0 30 -0.333008 57.667 -1 83s-1.66699 49.333 -3 72h-137z" />
    <glyph glyph-name="yen" unicode="&#xa5;" horiz-adv-x="1030" 
d="M41 1348l307 0.000976562l176 -553l101.5 290l87.5 263h280l-124.5 -290c-43.667 -100.667 -88.834 -199.334 -135.501 -296.001h170v-152h-223c-5.33301 -22 -10.166 -43.167 -14.499 -63.5s-8.5 -41.5 -12.5 -63.5h250v-151h-256v-332h-278v332h-265v151h258l-26 127
h-232v152h172l-117.5 292.5z" />
    <glyph glyph-name="dieresis" unicode="&#xa8;" horiz-adv-x="874" 
d="M68 1376c0 46.667 13.167 84.334 39.5 113.001s59.5 43 99.5 43c39.333 0 71.666 -14.333 96.999 -43s38 -66.334 38 -113.001s-12.667 -84.167 -38 -112.5s-57.666 -42.5 -96.999 -42.5s-72.333 14.333 -99 43s-40 66 -40 112zM459 1376c0 46.667 13 84.334 39 113.001
s58.667 43 98 43s72.333 -14.333 99 -43s40 -66.334 40 -113.001s-13.333 -84.167 -40 -112.5s-59.667 -42.5 -99 -42.5s-72 14.333 -98 43s-39 66 -39 112z" />
    <glyph glyph-name="copyright" unicode="&#xa9;" horiz-adv-x="1409" 
d="M98 672c0 106.667 15.3281 203.334 45.9951 290.001s73.334 160.667 128.001 222s118.834 108.666 192.501 141.999s153.834 50 240.501 50c86 0 165.833 -16.667 239.5 -50s137.834 -80.666 192.501 -141.999s97.334 -135.333 128.001 -222s46 -183.334 46 -290.001
s-15.333 -203 -46 -289s-73 -159.333 -127 -220s-118.167 -107.834 -192.5 -141.501s-154.5 -50.5 -240.5 -50.5s-166.333 16.833 -241 50.5s-139 80.834 -193 141.501s-96.333 134 -127 220s-46 182.333 -46 289zM259.995 672c0 -83.333 11.333 -158.5 34 -225.5
s54.167 -124 94.5 -171s87.333 -83.5 141 -109.5s111.167 -39 172.5 -39c62.667 0 121 13 175 39s101.167 62.5 141.5 109.5s72.166 104 95.499 171s35 142.167 35 225.5s-11.667 158.333 -35 225s-55.166 124 -95.499 172s-87.333 85 -141 111s-112.167 39 -175.5 39
c-61.333 0 -118.833 -13 -172.5 -39s-100.667 -63 -141 -111s-71.833 -105.333 -94.5 -172s-34 -141.667 -34 -225zM441.995 668c0 128.667 24.665 224 73.998 286s121 93 215 93c49.333 0 87 -4.5 113 -13.5s45.667 -16.167 59 -21.5l-12 -66
c-4 -22 -8.66699 -44.333 -14 -67c-9.33301 4 -25.666 8.33301 -48.999 13s-46.666 7 -69.999 7c-48 0 -84 -17 -108 -51s-36 -94 -36 -180s12 -146.167 36 -180.5s60 -51.5 108 -51.5c23.333 0 46.5 2.5 69.5 7.5s39.5 9.5 49.5 13.5c5.33301 -23.333 10 -46 14 -68l12 -65
c-13.333 -5.33301 -33 -12.5 -59 -21.5s-63.667 -13.5 -113 -13.5c-94 0 -165.667 31 -215 93s-74 157.333 -74 286z" />
    <glyph glyph-name="guillemotleft" unicode="&#xab;" horiz-adv-x="978" 
d="M86 549l307 387l127 -111l-100 -137.5l-101 -136.5l203 -275l-129 -120zM467 549l305 385.001l125 -111l-197 -272l99.5 -137.5l99.5 -134.5l-63.5 -62c-20.333 -20.667 -41.5 -40.334 -63.5 -59.001l-151.5 195.5z" />
    <glyph glyph-name="uni00AD" unicode="&#xad;" horiz-adv-x="653" 
d="M74 463v221h506v-221h-506z" />
    <glyph glyph-name="registered" unicode="&#xae;" horiz-adv-x="1212" 
d="M98 979c0 92.667 12.998 175.834 38.998 249.501s61.833 136.5 107.5 188.5s99.667 91.667 162 119s128.833 41 199.5 41s136.834 -13.667 198.501 -41s115.334 -67 161.001 -119s81.5 -114.833 107.5 -188.5s39 -156.834 39 -249.501s-13 -176 -39 -250
s-61.5 -136.833 -106.5 -188.5s-98.5 -91.5 -160.5 -119.5s-128.667 -42 -200 -42c-72.667 0 -140 14 -202 42s-115.5 67.833 -160.5 119.5s-80.5 114.5 -106.5 188.5s-39 157.333 -39 250zM230.998 979c0 -74 9.66699 -140 29 -198s45.666 -106.833 78.999 -146.5
s72.5 -69.667 117.5 -90s94.167 -30.5 147.5 -30.5s102.5 10.167 147.5 30.5s84.667 50.333 119 90s61 88.5 80 146.5s28.5 124 28.5 198s-9.5 140 -28.5 198s-45.667 106.667 -80 146s-74 69.666 -119 90.999s-94.167 32 -147.5 32s-102.5 -10.667 -147.5 -32
s-84.167 -51.666 -117.5 -90.999s-59.666 -88 -78.999 -146s-29 -124 -29 -198zM429.998 676l0.000976562 603.999c13.333 0 32.333 1.33301 57 4s59 4 103 4c69.333 0 123.166 -13.333 161.499 -40s57.5 -76 57.5 -148c0 -48 -11 -86.333 -33 -115s-52 -49.667 -90 -63
l141 -246h-139l-92 184c-19.333 6.66699 -36.333 14.334 -51 23.001v-207h-115zM544.999 982.999c34 0 66.333 8.5 97 25.5s46 44.833 46 83.5c0 35.333 -6.83301 59.833 -20.5 73.5s-36.167 20.5 -67.5 20.5h-55v-203z" />
    <glyph glyph-name="acute" unicode="&#xb4;" horiz-adv-x="735" 
d="M207 1284l285 342l155 -149l-160.5 -152l-160.5 -151z" />
    <glyph glyph-name="cedilla" unicode="&#xb8;" horiz-adv-x="724" 
d="M170 -422l54.9971 106.998c6.66699 -2.66699 19.334 -10.167 38.001 -22.5s39.667 -18.5 63 -18.5c26 0 46.833 6.16699 62.5 18.5s23.5 30.5 23.5 54.5c0 18 -8.66699 32.5 -26 43.5s-35.5 20.833 -54.5 29.5s-35.667 17.167 -50 25.5s-19.5 19.833 -15.5 34.5l47 154
h123c-1.33301 -8 -5 -18.833 -11 -32.5s-7 -28.167 -3 -43.5c1.33301 -4 11 -9.33301 29 -16c16.667 -8 33.334 -17.167 50.001 -27.5s32.167 -23.666 46.5 -39.999s26 -35.5 35 -57.5s13.5 -48 13.5 -78c0 -65.333 -22.5 -115.166 -67.5 -149.499
s-102.5 -51.5 -172.5 -51.5c-24.667 0 -47.167 3.16699 -67.5 9.5s-38.666 13.5 -54.999 21.5s-30 15.833 -41 23.5z" />
    <glyph glyph-name="guillemotright" unicode="&#xbb;" horiz-adv-x="978" 
d="M78 815l127 119l305 -389l-305 -387l-125 110l196 275zM457 817l127 119l309 -391l-154.5 -194.5l-154.5 -194.5l-125 110l98 138.5l100 138.5l-101 137.5z" />
    <glyph glyph-name="circumflex" unicode="&#x2c6;" horiz-adv-x="827" 
d="M96 1374l244 232h133l258 -230l-100 -145l-217 158l-219 -158z" />
    <glyph glyph-name="ring" unicode="&#x2da;" horiz-adv-x="878" 
d="M174 1454c0 66.667 20.5 122.003 61.5 166.003s92.833 66 155.5 66c30 0 58.333 -5.83301 85 -17.5s49.5 -27.834 68.5 -48.501s34.333 -45.334 46 -74.001s17.5 -59.334 17.5 -92.001c0 -68 -20.5 -124.167 -61.5 -168.5s-92.833 -66.5 -155.5 -66.5
c-64 0 -116.167 22.167 -156.5 66.5s-60.5 100.5 -60.5 168.5zM299 1454c0 -31.333 8.5 -57.166 25.5 -77.499s39.167 -30.5 66.5 -30.5s49.166 10.167 65.499 30.5s24.5 46.166 24.5 77.499s-8.16699 57 -24.5 77s-38.166 30 -65.499 30s-49.5 -10 -66.5 -30
s-25.5 -45.667 -25.5 -77z" />
    <glyph glyph-name="tilde" unicode="&#x2dc;" horiz-adv-x="882" 
d="M63 1339c12 13.333 25.668 30.9971 41.001 52.9971s32.833 42.667 52.5 62s42.5 36.166 68.5 50.499s56 21.5 90 21.5c28.667 0 54.667 -4.5 78 -13.5s45.166 -19 65.499 -30s40.166 -20.833 59.499 -29.5s40 -13 62 -13c16.667 0 32.334 3 47.001 9
s28.167 13.167 40.5 21.5s22.666 16.166 30.999 23.499s13.833 13 16.5 17l104 -81l-37.5 -55c-14.333 -21.333 -31.5 -42.166 -51.5 -62.499s-42.5 -37.666 -67.5 -51.999s-54.833 -21.5 -89.5 -21.5c-28.667 0 -54.167 4.16699 -76.5 12.5s-43.833 17.5 -64.5 27.5
l-60.5 28.5c-19.667 9 -40.5 13.5 -62.5 13.5c-16.667 0 -32.667 -2.66699 -48 -8s-29.166 -12.166 -41.499 -20.499s-23.333 -16.666 -33 -24.999s-16.5 -15.166 -20.5 -20.499z" />
    <glyph glyph-name="afii10023" unicode="&#x401;" horiz-adv-x="921" 
d="M127 0v1348h729c-2.66699 -38 -5.66699 -76.167 -9 -114.5s-7 -77.5 -11 -117.5h-422v-311h336v-217h-336v-357h440l18 -231h-745zM143 1655c0 46.667 13.333 84.167 40 112.5s60 42.5 100 42.5c39.333 0 71.666 -14.167 96.999 -42.5s38 -65.833 38 -112.5
s-12.667 -84.334 -38 -113.001s-57.666 -43 -96.999 -43s-72.5 14.333 -99.5 43s-40.5 66.334 -40.5 113.001zM535 1655c0 46.667 12.833 84.167 38.5 112.5s58.5 42.5 98.5 42.5c39.333 0 72.333 -14.167 99 -42.5s40 -65.833 40 -112.5s-13.333 -84.334 -40 -113.001
s-59.667 -43 -99 -43s-72 14.333 -98 43s-39 66.334 -39 113.001z" />
    <glyph glyph-name="afii10051" unicode="&#x402;" horiz-adv-x="1280" 
d="M29 1118v229.999h866v-230h-289v-358c9.33301 4 22 10.833 38 20.5s34.167 19.5 54.5 29.5s43.5 18.833 69.5 26.5s55.333 11.5 88 11.5c233.333 0 350 -167.333 350 -502c0 -102.667 -11.833 -188.667 -35.5 -258s-57.334 -125.833 -101.001 -169.5
s-97 -76.167 -160 -97.5s-134.167 -34.666 -213.5 -39.999v223c62.667 6.66699 115.667 35.334 159 86.001s65 127 65 229c0 65.333 -2.83301 116.833 -8.5 154.5s-14.334 66.167 -26.001 85.5s-26 31.666 -43 36.999s-37.167 8 -60.5 8
c-31.333 0 -63.666 -6.5 -96.999 -19.5s-59.666 -25.5 -78.999 -37.5v-547h-287v1118h-290z" />
    <glyph glyph-name="afii10052" unicode="&#x403;" horiz-adv-x="808" 
d="M127 0v1348h657v-246h-372v-1102h-285zM276 1548l285 342l154 -149l-320 -303z" />
    <glyph glyph-name="afii10053" unicode="&#x404;" horiz-adv-x="976" 
d="M68 672c0 237.333 45.6689 413.669 137.002 529.002s228.333 173 411 173c42 0 80.5 -2.66699 115.5 -8s65.833 -11.833 92.5 -19.5s49 -14.834 67 -21.501s31 -11.334 39 -14.001l-19.5 -107.5l-19.5 -107.5c-19.333 8 -49.5 18.5 -90.5 31.5s-85.833 19.5 -134.5 19.5
c-101.333 0 -173.833 -28.667 -217.5 -86s-70.167 -144.666 -79.5 -261.999h374v-230h-376c6.66699 -126.667 32.167 -220.334 76.5 -281.001s118.5 -91 222.5 -91c49.333 0 94.333 6.5 135 19.5s70.667 23.5 90 31.5l19.5 -107.5l19.5 -107.5
c-8 -2.66699 -21 -7.5 -39 -14.5s-40.333 -14.167 -67 -21.5s-57.334 -13.833 -92.001 -19.5s-73.334 -8.5 -116.001 -8.5c-182.667 0 -319.667 57.667 -411 173s-137 292 -137 530z" />
    <glyph glyph-name="afii10054" unicode="&#x405;" horiz-adv-x="917" 
d="M47 74l65.9971 206.998c9.33301 -4 23.166 -10.5 41.499 -19.5s39.5 -18 63.5 -27s49.667 -17.167 77 -24.5s54.666 -11 81.999 -11c24.667 0 48.834 3 72.501 9s45.167 15.167 64.5 27.5s34.833 28 46.5 47s17.5 42.167 17.5 69.5c0 38 -12.667 70.833 -38 98.5
s-56.833 53.667 -94.5 78l-122 75.5c-43.667 26 -84.334 56 -122.001 90s-69 74 -94 120s-37.5 102.333 -37.5 169c0 120 37.833 214.833 113.5 284.5s181.834 104.5 318.501 104.5c50.667 0 96 -3.66699 136 -11s74.667 -16.166 104 -26.499s54 -20.333 74 -30
s35.333 -16.5 46 -20.5l-65 -207c-10.667 4 -25.334 10.5 -44.001 19.5s-39.667 18 -63 27s-48.666 17.167 -75.999 24.5s-54.666 11 -81.999 11c-31.333 0 -57.833 -5.16699 -79.5 -15.5s-39.667 -23 -54 -38s-24.666 -31.333 -30.999 -49s-9.5 -33.167 -9.5 -46.5
c0 -40.667 12.667 -76.167 38 -106.5s56.833 -58.166 94.5 -83.499s78.334 -50.833 122.001 -76.5s84.334 -55 122.001 -88s69 -71.667 94 -116s37.5 -97.833 37.5 -160.5c0 -128.667 -37.5 -228.5 -112.5 -299.5s-186.833 -106.5 -335.5 -106.5
c-52 0 -98.167 4.5 -138.5 13.5s-75.833 19.333 -106.5 31s-56.667 23 -78 34s-37.333 18.5 -48 22.5z" />
    <glyph glyph-name="afii10055" unicode="&#x406;" horiz-adv-x="540" 
d="M127 0v1348h285v-1348h-285z" />
    <glyph glyph-name="afii10056" unicode="&#x407;" horiz-adv-x="540" 
d="M-63 1640c0 46.667 13.167 84.334 39.5 113.001s58.833 43 97.5 43c39.333 0 71.666 -14.333 96.999 -43s38 -66.334 38 -113.001s-12.667 -84.167 -38 -112.5s-57.666 -42.5 -96.999 -42.5c-38 0 -70.333 14.333 -97 43s-40 66 -40 112zM127 0v1348h285v-1348h-285z
M328 1640c0 46.667 13 84.334 39 113.001s58.667 43 98 43s72 -14.333 98 -43s39 -66.334 39 -113.001s-13 -84.167 -39 -112.5s-58.667 -42.5 -98 -42.5s-72 14.333 -98 43s-39 66 -39 112z" />
    <glyph glyph-name="afii10057" unicode="&#x408;" horiz-adv-x="555" 
d="M-43 -338c2.66699 35.333 5 70.499 7 105.499s4.33301 70.167 7 105.5c42 4 77 26.667 105 68c27.333 19.333 46.5 48.333 57.5 87s16.5 97 16.5 175v1145h282v-1082c0 -126.667 -8.83301 -229.667 -26.5 -309s-44 -141.166 -79 -185.499s-77.667 -74.333 -128 -90
s-108.833 -23.5 -175.5 -23.5c-10.667 0 -21.667 0.333008 -33 1s-22.333 1.66699 -33 3z" />
    <glyph glyph-name="afii10058" unicode="&#x409;" horiz-adv-x="1699" 
d="M41 -8l3.99902 209.001c39.333 2.66699 69.666 12.167 90.999 28.5s36 47.833 44 94.5c22 122.667 38.833 267 50.5 433s22.167 363 31.5 591h787v-492c15.333 2.66699 37.5 4.66699 66.5 6s59.833 2 92.5 2c64 0 122.667 -7.5 176 -22.5s99.166 -39.167 137.499 -72.5
s68 -76.333 89 -129s31.5 -116.334 31.5 -191.001c0 -80.667 -12.5 -150 -37.5 -208s-60 -105.833 -105 -143.5s-99.333 -65.667 -163 -84s-133.167 -27.5 -208.5 -27.5c-80.667 0 -152.667 2.33301 -216 7s-112.666 7 -147.999 7v1108h-246
c-8 -178.667 -20.167 -338.334 -36.5 -479.001s-34.166 -267 -53.499 -379c-9.33301 -53.333 -22.666 -97.333 -39.999 -132s-38.833 -61.667 -64.5 -81s-56 -32.666 -91 -39.999s-74.167 -11 -117.5 -11c-27.333 0 -52 2 -74 6zM1049 203.001c18 -1.33301 35.333 -2 52 -2
h50c64 0 114.833 20.167 152.5 60.5s56.5 97.166 56.5 170.499c0 82 -18.167 140 -54.5 174s-85.166 51 -146.499 51c-23.333 0 -45.833 -0.666992 -67.5 -2s-35.834 -2.66602 -42.501 -3.99902v-448z" />
    <glyph glyph-name="afii10059" unicode="&#x40a;" horiz-adv-x="1728" 
d="M127 0l0.00195312 1348h285v-560h366v560h287v-492c15.333 2.66699 37.666 4.66699 66.999 6s60.333 2 93 2c64 0 122.667 -7.5 176 -22.5s99 -39.167 137 -72.5s67.667 -76.333 89 -129s32 -116.334 32 -191.001c0 -80.667 -12.667 -150 -38 -208
s-60.5 -105.833 -105.5 -143.5s-99.333 -65.667 -163 -84s-132.834 -27.5 -207.501 -27.5c-80.667 0 -152.667 2.33301 -216 7s-113 7 -149 7l-2 561h-366v-561h-285zM1065 203.001c18 -1.33301 35.5 -2 52.5 -2h49.5c64 0 114.833 20.167 152.5 60.5
s56.5 97.166 56.5 170.499c0 82 -18 140 -54 174s-84.667 51 -146 51c-23.333 0 -46 -0.666992 -68 -2s-36.333 -2.66602 -43 -3.99902v-448z" />
    <glyph glyph-name="afii10060" unicode="&#x40b;" horiz-adv-x="1300" 
d="M29 1118l-0.000976562 230.001h866v-230h-289v-348c13.333 2.66699 29.333 8.16699 48 16.5s39.334 16.5 62.001 24.5s46.834 15.5 72.501 22.5s53.5 10.5 83.5 10.5c101.333 0 180 -30.333 236 -91s84 -155.334 84 -284.001v-469h-283v434
c0 60 -10.833 102.667 -32.5 128s-55.834 38 -102.501 38c-24.667 0 -50 -4.66699 -76 -14l-92 -35v-551h-287v1118h-290z" />
    <glyph glyph-name="afii10061" unicode="&#x40c;" horiz-adv-x="1103" 
d="M127 0v1348h285v-590l329 590h318l-381 -611l210.5 -368.5l211.5 -368.5h-338l-350 657v-657h-285zM387 1563l142.5 172l142.5 172l153 -152l-319 -301z" />
    <glyph glyph-name="afii10062" unicode="&#x40e;" horiz-adv-x="1069" 
d="M12 1348l305 -0.00488281l69 -216l67.5 -209.5l57.5 -182.5c17.333 -55.333 30.666 -100.666 39.999 -135.999l29 92c6.66699 28.667 17.167 68 31.5 118l48 165l55 186.5l53.5 182.5h295l-369 -1010c-12 -32.667 -26.167 -68.167 -42.5 -106.5
s-34.833 -74.166 -55.5 -107.499s-43.667 -61.666 -69 -84.999s-53.666 -36.333 -84.999 -39c-26 -2.66699 -51.167 -2.66699 -75.5 0s-49.5 4.66699 -75.5 6v211c27.333 -1.33301 48.833 3.83398 64.5 15.501s26.5 25.334 32.5 41.001s9 31.667 9 48s-1.33301 28.5 -4 36.5
zM238 1702c23.333 8 46.166 16.5 68.499 25.5s45.166 17.5 68.499 25.5c0 -10.667 3.66699 -22.5 11 -35.5s18.166 -25.667 32.499 -38s32.5 -22.666 54.5 -30.999s47.333 -12.5 76 -12.5s53.834 4.5 75.501 13.5s39.334 19.667 53.001 32s24.334 25 32.001 38
s11.5 24.167 11.5 33.5l137 -47c0 -28.667 -6.5 -57.334 -19.5 -86.001s-32.167 -55 -57.5 -79s-57.333 -43.5 -96 -58.5s-84 -22.5 -136 -22.5s-97.5 7.16699 -136.5 21.5s-71.5 33.166 -97.5 56.499s-45.333 49.333 -58 78s-19 57.334 -19 86.001z" />
    <glyph glyph-name="afii10145" unicode="&#x40f;" horiz-adv-x="1177" 
d="M127 0v1348h285v-1112h354v1112h283v-1348h-338v-322h-242v322h-342z" />
    <glyph glyph-name="afii10017" unicode="&#x410;" horiz-adv-x="1132" 
d="M23 0l374 1348h27.5c9 0 18.5 -0.666992 28.5 -2v2h288l369 -1348h-301l-61 233h-377l-62 -233h-286zM414 430h291.001c-12 58.667 -25.333 119.167 -40 181.5l-41.5 180.5l-36 163.5c-11 51 -19.833 94.833 -26.5 131.5c-6.66699 -36.667 -15.834 -80.5 -27.501 -131.5
l-37 -163.5l-41 -180.5z" />
    <glyph glyph-name="afii10018" unicode="&#x411;" horiz-adv-x="1064" 
d="M127 0l0.00390625 1348h799v-234h-514v-272c15.333 2.66699 37.5 4.33398 66.5 5.00098s59.833 1 92.5 1c64 0 122.667 -7.16699 176 -21.5s99.166 -37.166 137.499 -68.499s68.166 -73.333 89.499 -126s32 -116.667 32 -192c0 -80.667 -12.667 -149.667 -38 -207
s-60.5 -104.333 -105.5 -141s-99.333 -63.5 -163 -80.5s-132.834 -25.5 -207.501 -25.5c-80.667 0 -152.834 2.33301 -216.501 7s-113.167 7 -148.5 7zM412.004 202.998c18 -1.33301 35.333 -2.00098 52 -2.00098h50c64 0 114.833 19 152.5 57s56.5 94 56.5 168
c0 80.667 -18.167 137 -54.5 169s-85.166 48 -146.499 48c-23.333 0 -45.833 -0.666992 -67.5 -2s-35.834 -2.66602 -42.501 -3.99902v-434z" />
    <glyph glyph-name="afii10019" unicode="&#x412;" horiz-adv-x="1048" 
d="M127 0l0.00292969 1348c34 0 83.167 2 147.5 6s129.833 6 196.5 6c162.667 0 281.5 -25.667 356.5 -77s112.5 -141 112.5 -269c0 -78 -16.333 -143 -49 -195s-69.667 -91 -111 -117c28.667 -9.33301 55.667 -21.833 81 -37.5s47.166 -35.834 65.499 -60.501
s33 -54.667 44 -90s16.5 -77 16.5 -125c0 -136.667 -40.333 -238 -121 -304s-208.334 -99 -383.001 -99c-72.667 0 -141.334 2.33301 -206.001 7s-114.667 7 -150 7zM399.003 197.001c10.667 0 21.666 -0.333984 32.999 -1.00098s22.333 -1 33 -1
c80.667 0 140.834 15 180.501 45s59.5 85.333 59.5 166c0 62.667 -19.167 109.334 -57.5 140.001s-93.833 46 -166.5 46c-15.333 0 -30 -0.333008 -44 -1s-26.667 -1.66699 -38 -3v-391zM399.002 768c12 1.33301 25.168 2.33301 39.501 3s30.5 1 48.5 1c36.667 0 71 2 103 6
c23.333 23.333 42.166 52 56.499 86s21.5 72.333 21.5 115c0 106.667 -51.333 164 -154 172h-115v-383z" />
    <glyph glyph-name="afii10020" unicode="&#x413;" horiz-adv-x="808" 
d="M127 0v1348h657v-246h-372v-1102h-285z" />
    <glyph glyph-name="afii10021" unicode="&#x414;" horiz-adv-x="1232" 
d="M35 215c42 6.66699 77.334 17.666 106.001 32.999c24.667 40.667 44.167 94.834 58.5 162.501s25.666 148 33.999 241s14.5 197.833 18.5 314.5s8.66699 244 14 382h801v-1112h123v-547h-246v311h-663v-303h-246v518zM393.001 235.999h393v872h-268
c-2.66699 -102.667 -6 -199 -10 -289s-10.167 -172.5 -18.5 -247.5s-20 -140.833 -35 -197.5s-35.5 -102.667 -61.5 -138z" />
    <glyph glyph-name="afii10022" unicode="&#x415;" horiz-adv-x="921" 
d="M127 0v1348h729v-232h-442v-311h336v-217h-336v-357h442v-231h-729z" />
    <glyph glyph-name="afii10024" unicode="&#x416;" horiz-adv-x="1677" 
d="M12 0l211 368.5l211 368.5l-381 611h318l329 -590v590h285v-590l330 590h317l-381 -611l211 -368.5l211 -368.5h-338l-350 657v-657h-285v657l-350 -657h-338z" />
    <glyph glyph-name="afii10025" unicode="&#x417;" horiz-adv-x="954" 
d="M16 80l76 195.997c6.66699 -2.66699 18.667 -8 36 -16s38.166 -16.167 62.499 -24.5s51.833 -15.833 82.5 -22.5s62.667 -10 96 -10c68 0 122.167 15.333 162.5 46s60.5 83 60.5 157c0 61.333 -18.833 105.666 -56.5 132.999s-91.167 41 -160.5 41
c-31.333 0 -61 -0.333008 -89 -1s-48.333 -1 -61 -1v206h70c31.333 0 60.333 2.16699 87 6.5s51.667 9.83301 75 16.5l25.5 19.5c11.667 9 22.5 21 32.5 36s19.167 33 27.5 54s12.5 45.167 12.5 72.5c0 54.667 -17.333 94.334 -52 119.001s-83 37 -145 37
c-27.333 0 -54.166 -2 -80.499 -6s-50.5 -8.83301 -72.5 -14.5s-40.167 -11.167 -54.5 -16.5s-23.5 -8.66602 -27.5 -9.99902l-49 209c9.33301 4 23.833 9.33301 43.5 16s44.667 13.834 75 21.501s64.5 14.167 102.5 19.5s79.667 8 125 8
c135.333 0 240.833 -28.667 316.5 -86s113.5 -141.333 113.5 -252c0 -82 -19.167 -148.5 -57.5 -199.5s-84.166 -90.833 -137.499 -119.5c70.667 -19.333 127.667 -54.666 171 -105.999s65 -123.333 65 -216c0 -74 -12 -137.5 -36 -190.5s-57.167 -96.667 -99.5 -131
s-92.833 -59.333 -151.5 -75s-123.334 -23.5 -194.001 -23.5c-54.667 0 -104.167 5.16699 -148.5 15.5s-83.333 21.666 -117 33.999s-61 24.333 -82 36s-36.5 18.834 -46.5 21.501z" />
    <glyph glyph-name="afii10026" unicode="&#x418;" horiz-adv-x="1187" 
d="M127 0v1348h270v-686c0 -28.667 -1.33301 -59.834 -4 -93.501s-4 -57.834 -4 -72.501l214.5 425l213.5 427h242v-1348h-271v680c0 31.333 1.83301 63.333 5.5 96s5.5 56.667 5.5 72h-2l-428 -848h-242z" />
    <glyph glyph-name="afii10027" unicode="&#x419;" horiz-adv-x="1187" 
d="M127 0v1348h270v-686c0 -28.667 -1.33301 -59.834 -4 -93.501s-4 -57.834 -4 -72.501l214.5 425l213.5 427h242v-1348h-271v680c0 31.333 1.83301 63.333 5.5 96s5.5 56.667 5.5 72h-2l-428 -848h-242zM291 1702c23.333 8 46.166 16.5 68.499 25.5
s45.166 17.5 68.499 25.5c0 -10.667 3.5 -22.5 10.5 -35.5s17.667 -25.667 32 -38s32.333 -22.666 54 -30.999s46.834 -12.5 75.501 -12.5s54 4.5 76 13.5s40.167 19.667 54.5 32s24.833 25 31.5 38s10 24.167 10 33.5l137 -47c0 -28.667 -6.16699 -57.334 -18.5 -86.001
s-31.333 -55 -57 -79s-57.667 -43.5 -96 -58.5s-84.166 -22.5 -137.499 -22.5c-52 0 -97.333 7.16699 -136 21.5s-71 33.166 -97 56.499s-45.167 49.333 -57.5 78s-18.5 57.334 -18.5 86.001z" />
    <glyph glyph-name="afii10028" unicode="&#x41a;" horiz-adv-x="1103" 
d="M127 0v1348h285v-590l329 590h318l-381 -611l210.5 -368.5l211.5 -368.5h-338l-350 657v-657h-285z" />
    <glyph glyph-name="afii10029" unicode="&#x41b;" horiz-adv-x="1175" 
d="M41 -8l4.00195 208.999c39.333 2.66699 71 14.834 95 36.501s40.667 58.5 50 110.5c18 126.667 32.5 271 43.5 433s20.5 351 28.5 567h785v-1348h-283v1108h-246c-6.66699 -144.667 -15.167 -280.167 -25.5 -406.5s-21.5 -244.833 -33.5 -355.5
c-8 -69.333 -22.333 -127.333 -43 -174s-46.334 -83.667 -77.001 -111s-66.834 -46.333 -108.501 -57s-87.834 -16 -138.501 -16c-9.33301 0 -18.166 0.333008 -26.499 1s-16.5 1.66699 -24.5 3z" />
    <glyph glyph-name="afii10030" unicode="&#x41c;" horiz-adv-x="1417" 
d="M51 0l128.995 1348h277c6.66699 -19.333 16.5 -49.833 29.5 -91.5l44 -143.5l52 -172l52 -176l44 -156.5l30.5 -110.5c6.66699 26 16.834 62.5 30.501 109.5l45 155.5l52 176l53 173l45 144.5c13 41.667 23.167 72.167 30.5 91.5h278l123 -1348h-287
c-1.33301 23.333 -3.66602 56.5 -6.99902 99.5s-6.66602 91.5 -9.99902 145.5s-7.5 111 -12.5 171s-9.16699 117.667 -12.5 173s-6.66602 106.833 -9.99902 154.5s-5.66602 85.834 -6.99902 114.501l-27.5 -94.5l-39 -135l-45 -154.5l-45 -151.5l-38 -127
c-11 -37.667 -19.167 -64.5 -24.5 -80.5h-195l-25.5 80l-39 125.5l-45 150.5l-46 153.5c-15 49 -28.333 94.333 -40 136s-20.167 74.167 -25.5 97.5l-57 -858h-277z" />
    <glyph glyph-name="afii10031" unicode="&#x41d;" horiz-adv-x="1189" 
d="M127 0v1348h285v-564h366v564h283v-1348h-283v557h-366v-557h-285z" />
    <glyph glyph-name="afii10032" unicode="&#x41e;" horiz-adv-x="1167" 
d="M68 674c0 238.667 44.335 414.667 133.002 528s215.667 170 381 170s292.666 -56.667 381.999 -170s134 -289.333 134 -528s-44.833 -415.167 -134.5 -529.5s-216.834 -171.5 -381.501 -171.5c-165.333 0 -292.333 57 -381 171s-133 290.667 -133 530zM360.002 674
c0 -150 17.168 -266.333 51.501 -349s91.166 -124 170.499 -124c80.667 0 138.334 41.333 173.001 124s52 199 52 349s-17.833 266 -53.5 348s-92.834 123 -171.501 123c-78 0 -134.5 -41 -169.5 -123s-52.5 -198 -52.5 -348z" />
    <glyph glyph-name="afii10033" unicode="&#x41f;" horiz-adv-x="1177" 
d="M127 0v1348h922v-1348h-283v1112h-354v-1112h-285z" />
    <glyph glyph-name="afii10034" unicode="&#x420;" horiz-adv-x="1015" 
d="M127 0l-0.000976562 1348c18 0 40.167 0.666992 66.5 2s55.333 2.66602 87 3.99902l98.5 4c34 1.33301 67.333 2 100 2c174.667 0 299.334 -39 374.001 -117s112 -192.667 112 -344c0 -84.667 -12 -156.334 -36 -215.001s-57.167 -106.167 -99.5 -142.5
s-91.5 -62.333 -147.5 -78s-116.667 -23.5 -182 -23.5c-18 0 -34.833 0.333008 -50.5 1s-31.167 1.66699 -46.5 3v-444h-276zM402.999 653.002l75.999 -0.000976562c58.667 0 106.5 17.833 143.5 53.5s55.5 99.834 55.5 192.501c0 83.333 -16.5 144.833 -49.5 184.5
s-79.5 59.5 -139.5 59.5h-41.5c-14.333 0 -29.166 -0.666992 -44.499 -2v-488z" />
    <glyph glyph-name="afii10035" unicode="&#x421;" horiz-adv-x="976" 
d="M68 672c0 237.333 45.6689 413.669 137.002 529.002s228.333 173 411 173c42 0 80.5 -2.66699 115.5 -8s65.833 -11.833 92.5 -19.5s49 -14.834 67 -21.501s31 -11.334 39 -14.001l-19.5 -107.5l-19.5 -107.5c-19.333 8 -49.5 18.5 -90.5 31.5s-85.833 19.5 -134.5 19.5
c-58.667 0 -107.167 -10 -145.5 -30s-69.166 -49.333 -92.499 -88s-39.666 -88 -48.999 -148s-14 -129.667 -14 -209c0 -80.667 4.66699 -150.667 14 -210s25.666 -108.5 48.999 -147.5s54.166 -68.333 92.499 -88s86.833 -29.5 145.5 -29.5c49.333 0 94.333 6.5 135 19.5
s70.667 23.5 90 31.5l19.5 -107.5l19.5 -107.5c-8 -2.66699 -21 -7.5 -39 -14.5s-40.333 -14.167 -67 -21.5s-57.334 -13.833 -92.001 -19.5s-73.334 -8.5 -116.001 -8.5c-182.667 0 -319.667 57.667 -411 173s-137 292 -137 530z" />
    <glyph glyph-name="afii10036" unicode="&#x422;" horiz-adv-x="903" 
d="M31 1116v232h841l-2 -232h-276v-1116h-285v1116h-278z" />
    <glyph glyph-name="afii10037" unicode="&#x423;" horiz-adv-x="1069" 
d="M12 1348l305 -0.00488281l69 -216l67.5 -209.5l57.5 -182.5c17.333 -55.333 30.666 -100.666 39.999 -135.999l29 92c6.66699 28.667 17.167 68 31.5 118l48 165l55 186.5l53.5 182.5h295l-369 -1010c-12 -32.667 -26.167 -68.167 -42.5 -106.5
s-34.833 -74.166 -55.5 -107.499s-43.667 -61.666 -69 -84.999s-53.666 -36.333 -84.999 -39c-26 -2.66699 -51.167 -2.66699 -75.5 0s-49.5 4.66699 -75.5 6v211c27.333 -1.33301 48.833 3.83398 64.5 15.501s26.5 25.334 32.5 41.001s9 31.667 9 48s-1.33301 28.5 -4 36.5
z" />
    <glyph glyph-name="afii10038" unicode="&#x424;" horiz-adv-x="1429" 
d="M63 672c0 83.333 9.99805 157.334 29.998 222.001s51.167 119.5 93.5 164.5s95.833 79.5 160.5 103.5s142.334 36.667 233.001 38v148h268v-148c178.667 -2.66699 309.334 -49.334 392.001 -140.001s124 -218.667 124 -384c0 -168 -41 -297.333 -123 -388
s-213 -136.667 -393 -138v-150h-268v150c-180 2.66699 -311.167 49 -393.5 139s-123.5 217.667 -123.5 383zM345.998 672.001c0 -108 19.5 -186.167 58.5 -234.5s97.5 -74.166 175.5 -77.499v627c-78 -2.66699 -136.5 -28.834 -175.5 -78.501s-58.5 -128.5 -58.5 -236.5z
M847.998 360.001c79.333 2.66699 138 28.668 176 78.001s57 128.666 57 237.999c0 108 -19.333 186.5 -58 235.5s-97 74.833 -175 77.5v-629z" />
    <glyph glyph-name="afii10039" unicode="&#x425;" horiz-adv-x="1101" 
d="M6 0l379 678.002l-362 670h327c8 -19.333 21.333 -49.833 40 -91.5l59.5 -135l60.5 -139.5c19.333 -44.667 33 -77.667 41 -99c8 23.333 21.667 57.166 41 101.499l61.5 138l61 134l41.5 91.5h323l-362 -672l190 -338l189 -338h-336c-8 19.333 -22 50.166 -42 92.499
l-62.5 135l-62.5 139c-20 45 -34 80.5 -42 106.5c-9.33301 -24.667 -24.333 -59.5 -45 -104.5l-63.5 -140l-62.5 -136l-44 -92.5h-330z" />
    <glyph glyph-name="afii10040" unicode="&#x426;" horiz-adv-x="1216" 
d="M127 0v1348h285v-1112h354v1112h283v-1112h122v-547h-247v311h-797z" />
    <glyph glyph-name="afii10041" unicode="&#x427;" horiz-adv-x="1101" 
d="M90 924v424.001h283v-449c0 -74 10.5 -124.833 31.5 -152.5s56.167 -41.5 105.5 -41.5c40.667 0 76.167 6 106.5 18l73.5 29v596h283v-1348h-283v547c-6.66699 -2.66699 -17.5 -7.83398 -32.5 -15.501s-33.833 -15.5 -56.5 -23.5s-48.667 -15.167 -78 -21.5
s-62.333 -9.5 -99 -9.5c-61.333 0 -113.5 8.83301 -156.5 26.5s-77.5 44.667 -103.5 81s-44.833 82.5 -56.5 138.5s-17.5 123 -17.5 201z" />
    <glyph glyph-name="afii10042" unicode="&#x428;" horiz-adv-x="1644" 
d="M127 0v1348h285v-1112h270v1112h281v-1112h268v1112h285v-1348h-1389z" />
    <glyph glyph-name="afii10043" unicode="&#x429;" horiz-adv-x="1683" 
d="M127 0v1348h285v-1112h270v1112h281v-1112h268v1112h285v-1112h122v-547h-247v311h-1264z" />
    <glyph glyph-name="afii10044" unicode="&#x42a;" horiz-adv-x="1245" 
d="M10 1348l602 0.000976562v-492c15.333 2.66699 37.666 4.66699 66.999 6s60.333 2 93 2c64 0 122.667 -7.5 176 -22.5s99.166 -39.167 137.499 -72.5s68 -76.333 89 -129s31.5 -116.334 31.5 -191.001c0 -80.667 -12.667 -150 -38 -208s-60.5 -105.833 -105.5 -143.5
s-99.167 -65.667 -162.5 -84s-132.666 -27.5 -207.999 -27.5c-80.667 0 -152.667 2.33301 -216 7s-112.666 7 -147.999 7v1110l-316 2zM612 203.001c18 -1.33301 35.499 -2 52.499 -2h50.5c64 0 114.833 20.167 152.5 60.5s56.5 97.166 56.5 170.499
c0 82 -18.167 140 -54.5 174s-85.166 51 -146.499 51c-23.333 0 -45.833 -0.666992 -67.5 -2s-36.167 -2.66602 -43.5 -3.99902v-448z" />
    <glyph glyph-name="afii10045" unicode="&#x42b;" horiz-adv-x="1552" 
d="M127 0l0.00390625 1348h285v-492c15.333 2.66699 37.5 4.66699 66.5 6s59.833 2 92.5 2c64 0 122.667 -7.5 176 -22.5s99.166 -39.167 137.499 -72.5s68.166 -76.333 89.499 -129s32 -116.334 32 -191.001c0 -80.667 -12.667 -150 -38 -208s-60.5 -105.833 -105.5 -143.5
s-99.333 -65.667 -163 -84s-132.834 -27.5 -207.501 -27.5c-80.667 0 -152.834 2.33301 -216.501 7s-113.167 7 -148.5 7zM412.004 203.001c18 -1.33301 35.333 -2 52 -2h50c64 0 114.833 20.167 152.5 60.5s56.5 97.166 56.5 170.499c0 82 -18.167 140 -54.5 174
s-85.166 51 -146.499 51c-23.333 0 -45.833 -0.666992 -67.5 -2s-35.834 -2.66602 -42.501 -3.99902v-448zM1141 0.000976562v1348h284v-1348h-284z" />
    <glyph glyph-name="afii10046" unicode="&#x42c;" horiz-adv-x="1058" 
d="M127 0l0.00390625 1348h285v-492c15.333 2.66699 37.5 4.66699 66.5 6s59.833 2 92.5 2c64 0 122.667 -7.5 176 -22.5s99.166 -39.167 137.499 -72.5s68.166 -76.333 89.499 -129s32 -116.334 32 -191.001c0 -80.667 -12.667 -150 -38 -208s-60.5 -105.833 -105.5 -143.5
s-99.333 -65.667 -163 -84s-132.834 -27.5 -207.501 -27.5c-80.667 0 -152.834 2.33301 -216.501 7s-113.167 7 -148.5 7zM412.004 203.001c18 -1.33301 35.333 -2 52 -2h50c64 0 114.833 20.167 152.5 60.5s56.5 97.166 56.5 170.499c0 82 -18.167 140 -54.5 174
s-85.166 51 -146.499 51c-23.333 0 -45.833 -0.666992 -67.5 -2s-35.834 -2.66602 -42.501 -3.99902v-448z" />
    <glyph glyph-name="afii10047" unicode="&#x42d;" horiz-adv-x="966" 
d="M29 33c6.66699 35.333 13 71.165 19 107.498s12.667 72.166 20 107.499c19.333 -8 49.333 -18.5 90 -31.5s85.667 -19.5 135 -19.5c104 0 178.167 30.333 222.5 91s69.833 154.334 76.5 281.001h-377v230h375c-9.33301 117.333 -36 204.666 -80 261.999
s-116.333 86 -217 86c-49.333 0 -94.5 -6.5 -135.5 -19.5s-70.833 -23.5 -89.5 -31.5l-19.5 107l-19.5 108c8 2.66699 20.833 7.33398 38.5 14.001s39.834 13.834 66.501 21.501s57.5 14.167 92.5 19.5s73.5 8 115.5 8c182.667 0 319.834 -57.667 411.501 -173
s137.5 -291.666 137.5 -528.999s-45.833 -413.833 -137.5 -529.5s-228.834 -173.5 -411.501 -173.5c-42 0 -80.5 2.83301 -115.5 8.5s-65.833 12.167 -92.5 19.5s-48.834 14.5 -66.501 21.5s-30.5 11.833 -38.5 14.5z" />
    <glyph glyph-name="afii10048" unicode="&#x42e;" horiz-adv-x="1703" 
d="M127 0l0.000976562 1348h285v-555h209c13.333 198 61.666 344 144.999 438s201.333 141 354 141c165.333 0 292.333 -56.667 381 -170s133 -289.333 133 -528s-44.333 -415.167 -133 -529.5s-215.667 -171.5 -381 -171.5c-152.667 0 -271 47.5 -355 142.5
s-133 243.5 -147 445.5h-206v-561h-285zM899.001 674c0 -72.667 3.83105 -138.333 11.498 -197s20.334 -108.5 38.001 -149.5s40.5 -72.333 68.5 -94s61.667 -32.5 101 -32.5c79.333 0 136.333 42.333 171 127s52 200 52 346s-17.333 261 -52 345s-91.667 126 -171 126
s-135.666 -42 -168.999 -126s-50 -199 -50 -345z" />
    <glyph glyph-name="afii10049" unicode="&#x42f;" horiz-adv-x="1069" 
d="M43 0l262.001 548.998c-28.667 10.667 -56.667 26 -84 46s-51.5 45.333 -72.5 76s-37.667 66.834 -50 108.501s-18.5 89.834 -18.5 144.501c0 160 40.667 272.667 122 338s204.333 98 369 98c70.667 0 140 -2 208 -6s119.667 -6 155 -6v-1348h-270v516
c-6.66699 0 -19.334 -0.666992 -38.001 -2s-41 -2 -67 -2l-215 -512h-301zM367.001 927.998c0 -70.667 14.667 -123.5 44 -158.5s71.333 -52.5 126 -52.5c26 0 50.833 1 74.5 3s41.167 3 52.5 3v416c-20.667 1.33301 -40.167 2.33301 -58.5 3s-36.5 1 -54.5 1
c-65.333 0 -112.333 -17.833 -141 -53.5s-43 -89.5 -43 -161.5z" />
    <glyph glyph-name="afii10065" unicode="&#x430;" horiz-adv-x="956" 
d="M47 293c0 130 40.998 222.834 122.998 278.501s204.333 83.5 367 83.5l47 -4v25c0 42 -4.5 75.667 -13.5 101s-21.333 44.833 -37 58.5s-34.167 22.5 -55.5 26.5s-44.666 6 -69.999 6c-46.667 0 -94.167 -5 -142.5 -15s-86.166 -20 -113.499 -30l-31 189l60.5 19
c23.667 7.33301 50.167 14.166 79.5 20.499s60.333 11.833 93 16.5s66.334 7 101.001 7c140.667 0 243 -33 307 -99s96 -168.667 96 -308v-668h-254c-2.66699 19.333 -5 38.5 -7 57.5s-4.33301 38.167 -7 57.5c-6.66699 -6.66699 -16.167 -17.667 -28.5 -33
s-28.833 -30.833 -49.5 -46.5s-46.334 -29.667 -77.001 -42s-66.334 -18.5 -107.001 -18.5c-38 0 -74.167 6.16699 -108.5 18.5s-64.166 31.5 -89.499 57.5s-45.5 58.833 -60.5 98.5s-22.5 87.5 -22.5 143.5zM312.998 326.001c0 -48 9.66797 -84.998 29.001 -110.998
s49.333 -39 90 -39c22 0 41.167 3.16699 57.5 9.5s30.666 14.166 42.999 23.499s22.5 19.166 30.5 29.499s15 18.833 21 25.5v232h-27.5c-9 0 -18.5 0.666992 -28.5 2c-78 0 -133.333 -12.333 -166 -37s-49 -69.667 -49 -135z" />
    <glyph glyph-name="afii10066" unicode="&#x431;" horiz-adv-x="995" 
d="M59 575c0 128.667 11.001 239.493 33.001 332.493s54.833 172.5 98.5 238.5s98 121.833 163 167.5s141.167 85.167 228.5 118.5c31.333 12 62.333 26.833 93 44.5s61.667 34.167 93 49.5l106 -178c-39.333 -24.667 -77.833 -50.667 -115.5 -78
s-78.167 -50.666 -121.5 -69.999c-48 -20.667 -89 -41.167 -123 -61.5s-63 -43.166 -87 -68.499s-43.167 -53.666 -57.5 -84.999s-25.5 -68.333 -33.5 -111c6.66699 9.33301 16.5 20.333 29.5 33s29 24.334 48 35.001s40.833 19.834 65.5 27.501s52.667 11.5 84 11.5
c112 0 201.833 -38.5 269.5 -115.5s101.5 -195.5 101.5 -355.5c0 -92.667 -10.667 -172.5 -32 -239.5s-51.333 -122.667 -90 -167s-85.334 -77.166 -140.001 -98.499s-115.667 -32 -183 -32c-65.333 0 -124.666 9.33301 -177.999 28s-98.333 50.5 -135 95.5
s-65.334 106.333 -86.001 184s-31 175.834 -31 294.501zM342.001 511.993c0 -117.333 11.6641 -201.333 34.9971 -252s63 -76 119 -76c57.333 0 97.5 26 120.5 78s34.5 129.333 34.5 232s-11.167 177.834 -33.5 225.501s-61.5 71.5 -117.5 71.5
c-39.333 0 -69.666 -6.83301 -90.999 -20.5s-37.166 -32.834 -47.499 -57.501s-16.166 -54.167 -17.499 -88.5s-2 -71.833 -2 -112.5z" />
    <glyph glyph-name="afii10067" unicode="&#x432;" horiz-adv-x="954" 
d="M106 0v1053c16.667 0 38 0.666992 64 2s54.333 2.66602 85 3.99902l96 4c33.333 1.33301 66 2 98 2c144.667 0 249 -20.5 313 -61.5s96 -109.833 96 -206.5c0 -32.667 -5.16699 -62.334 -15.5 -89.001s-24 -50 -41 -70s-36 -37.167 -57 -51.5
s-41.833 -26.166 -62.5 -35.499c20.667 -2.66699 43.167 -8.16699 67.5 -16.5s47.5 -21.666 69.5 -39.999s40.5 -43.166 55.5 -74.499s22.5 -71 22.5 -119c0 -104 -32.5 -182.5 -97.5 -235.5s-171.167 -79.5 -318.5 -79.5c-83.333 0 -157 2.33301 -221 7s-115.333 7 -154 7z
M371 171.999c16.667 -1.33301 32.999 -2.33301 48.999 -3s32.333 -1 49 -1c100 0 149.667 52.667 149 158c0 44 -12.167 76.5 -36.5 97.5s-59.166 31.5 -104.499 31.5h-106v-283zM370.999 609.999l99.999 -0.000976562c4 0 12.5 1 25.5 3s26.333 7.5 40 16.5
s26 23.333 37 43s16.5 48.167 16.5 85.5c0 42 -9.66699 72.333 -29 91s-46.666 29.334 -81.999 32.001l-108 -4v-267z" />
    <glyph glyph-name="afii10068" unicode="&#x433;" horiz-adv-x="677" 
d="M106 0v1053h547l-2 -219h-270v-834h-275z" />
    <glyph glyph-name="afii10069" unicode="&#x434;" horiz-adv-x="1097" 
d="M29 195c48 0 84.1689 26.165 108.502 78.498s41.666 119.833 51.999 202.5s16.166 174.834 17.499 276.501s3.33301 201.834 6 300.501h739v-840h111v-512h-236v299h-565v-299h-233v494zM377.002 212.998l307 -0.000976562v637h-225
c-1.33301 -61.333 -2.33301 -123.166 -3 -185.499s-3.16699 -121.5 -7.5 -177.5s-11.833 -107.5 -22.5 -154.5s-27 -86.833 -49 -119.5z" />
    <glyph glyph-name="afii10070" unicode="&#x435;" horiz-adv-x="935" 
d="M57 498c0 98 11.3301 183.167 33.9971 255.5s53.167 132.5 91.5 180.5s83 83.5 134 106.5s105.833 34.5 164.5 34.5s112.334 -9.16699 161.001 -27.5s90.334 -47.666 125.001 -87.999s62 -91.166 82 -152.499s30 -135 30 -221c0 -36.667 -1.83301 -68.334 -5.5 -95.001
s-6.16699 -43 -7.5 -49h-534c1.33301 -91.333 21.833 -157.166 61.5 -197.499s88.834 -60.5 147.501 -60.5c54.667 0 104.167 9.33301 148.5 28l103.5 44l55 -180c-8 -5.33301 -21.667 -13.5 -41 -24.5s-44.333 -22.333 -75 -34s-66.5 -21.667 -107.5 -30
s-86.833 -12.5 -137.5 -12.5c-60 0 -115.833 10 -167.5 30s-97 51.167 -136 93.5s-69.833 96.166 -92.5 161.499s-34 144.666 -34 237.999zM331.997 610h120.502c50.333 0 103.5 1.33301 159.5 4c0 52 -3.33301 95.167 -10 129.5s-15.834 61.333 -27.501 81
s-25.667 33.667 -42 42s-34.166 12.5 -53.499 12.5c-18 0 -35.833 -4.83301 -53.5 -14.5s-33.334 -25.167 -47.001 -46.5s-24.834 -49 -33.501 -83s-13 -75.667 -13 -125z" />
    <glyph glyph-name="afii10072" unicode="&#x436;" horiz-adv-x="1523" 
d="M12 0l375 584l-338 469h309l267 -457v457h274v-457l266 457h310l-338 -469l374 -584h-329l-283 502v-502h-274v502l-283 -502h-330z" />
    <glyph glyph-name="afii10073" unicode="&#x437;" horiz-adv-x="784" 
d="M8 53l55.0029 174.005c4 -1.33301 12.167 -4.66602 24.5 -9.99902s27.833 -10.666 46.5 -15.999s39.5 -10.5 62.5 -15.5s48.167 -7.5 75.5 -7.5c52 0 94 11.667 126 35s48 58.666 48 105.999c0 48 -14.333 80.833 -43 98.5s-68 26.5 -118 26.5
c-22 0 -45 -0.333008 -69 -1s-40.667 -1 -50 -1v179c8 -1.33301 17.5 -1.33301 28.5 0s23.833 2 38.5 2h52c21.333 0 42 3.33301 62 10s37.167 19.5 51.5 38.5s21.5 48.5 21.5 88.5c0 39.333 -14.333 68.166 -43 86.499s-67 27.5 -115 27.5
c-42 0 -79.833 -4.66699 -113.5 -14s-53.167 -15.333 -58.5 -18l-20.5 92l-20.5 92c15.333 5.33301 47.166 14.833 95.499 28.5s112.833 20.5 193.5 20.5c49.333 0 95.833 -4.66699 139.5 -14s81.5 -25 113.5 -47s57.5 -49.667 76.5 -83s28.5 -74 28.5 -122
c0 -38 -5 -71 -15 -99s-23.333 -52.333 -40 -73s-35.834 -37.834 -57.501 -51.501s-43.5 -24.5 -65.5 -32.5c22 -2.66699 45 -8.83398 69 -18.501s46.167 -24.334 66.5 -44.001s37.333 -44.834 51 -75.501s20.5 -68 20.5 -112c0 -56 -9.83301 -104.833 -29.5 -146.5
s-47 -75.834 -82 -102.501s-77.333 -46.5 -127 -59.5s-103.834 -19.5 -162.501 -19.5c-44 0 -83.333 3.16699 -118 9.5s-65 13.833 -91 22.5s-47.833 17.5 -65.5 26.5s-31.5 15.5 -41.5 19.5z" />
    <glyph glyph-name="afii10074" unicode="&#x438;" horiz-adv-x="1058" 
d="M106 0v1053h265v-531c0 -16.667 -1 -34.834 -3 -54.501s-3 -34.834 -3 -45.501c1.33301 0 2 -0.666992 2 -2l356 633h227v-1053h-264v506c0 19.333 1 39.5 3 60.5s3 36.833 3 47.5h-2l-352 -614h-232z" />
    <glyph glyph-name="afii10075" unicode="&#x439;" horiz-adv-x="1058" 
d="M106 0v1053h265v-531c0 -16.667 -1 -34.834 -3 -54.501s-3 -34.834 -3 -45.501c1.33301 0 2 -0.666992 2 -2l356 633h227v-1053h-264v506c0 19.333 1 39.5 3 60.5s3 36.833 3 47.5h-2l-352 -614h-232zM225 1438c23.333 8 46.3311 16.5 68.998 25.5
s45.334 17.5 68.001 25.5c0 -10.667 3.5 -22.5 10.5 -35.5s17.667 -25.667 32 -38s32.5 -22.666 54.5 -30.999s47.333 -12.5 76 -12.5s53.834 4.5 75.501 13.5s39.667 19.667 54 32s25 25 32 38s10.5 24.167 10.5 33.5l137 -47c0 -28.667 -6.16699 -57.334 -18.5 -86.001
s-31.5 -55 -57.5 -79s-58.167 -43.5 -96.5 -58.5s-83.833 -22.5 -136.5 -22.5c-52 0 -97.5 7.16699 -136.5 21.5s-71.5 33.166 -97.5 56.499s-45.167 49.333 -57.5 78s-18.5 57.334 -18.5 86.001z" />
    <glyph glyph-name="afii10076" unicode="&#x43a;" horiz-adv-x="974" 
d="M102 0v1053h275v-457l266 457h309l-338 -469l375 -584h-330l-282 502v-502h-275z" />
    <glyph glyph-name="afii10077" unicode="&#x43b;" horiz-adv-x="1040" 
d="M27 -6l13.999 190c15.333 4 29.333 7.83301 42 11.5s24.5 9.5 35.5 17.5s20.667 19.833 29 35.5s14.5 38.5 18.5 68.5c12 94 21.833 201.5 29.5 322.5s14.167 258.833 19.5 413.5h719v-1053h-275v836h-200c-5.33301 -211.333 -17.666 -396.333 -36.999 -555
c-6.66699 -54.667 -17.167 -100.5 -31.5 -137.5s-34.5 -66.833 -60.5 -89.5s-58.167 -39 -96.5 -49s-84.833 -15 -139.5 -15c-12 0 -23.5 0.333008 -34.5 1s-21.833 1.66699 -32.5 3z" />
    <glyph glyph-name="afii10078" unicode="&#x43c;" horiz-adv-x="1216" 
d="M61 0l61.002 524.999l58 526h240c5.33301 -15.333 12.833 -39 22.5 -71l34 -109.5l40 -130l38.5 -134l33.5 -120c10.333 -36.333 18.166 -65.5 23.499 -87.5c5.33301 22 13.166 51.167 23.499 87.5l33 119l38 134l38 131l32 109.5c9.66699 32 17.167 55.667 22.5 71h243
l111 -1051h-254c-2.66699 27.333 -6 69.666 -10 126.999l-12.5 184.5c-4.33301 65.667 -8.83301 129.834 -13.5 192.501s-7.66699 113 -9 151l-20.5 -80c-8.33301 -32.667 -18 -67.667 -29 -105s-21.833 -76.166 -32.5 -116.499l-31.5 -114l-28 -94.5l-18.5 -61h-131l-45 4
c0 -1.33301 -0.333008 -2 -1 -2s-1 -0.666992 -1 -2l-18.5 61c-8.33301 27.333 -17.166 58.833 -26.499 94.5s-19.833 73.667 -31.5 114s-22.334 79.166 -32.001 116.499l-26.5 105.5l-19 79.5l-11 -151l-15 -192.5l-14.5 -184.5
c-4.33301 -57.333 -7.83301 -99.666 -10.5 -126.999h-250z" />
    <glyph glyph-name="afii10079" unicode="&#x43d;" horiz-adv-x="1048" 
d="M106 0v1053h275v-400h287v400h274v-1053h-274v444h-287v-444h-275z" />
    <glyph glyph-name="afii10080" unicode="&#x43e;" horiz-adv-x="1017" 
d="M57 526c0 98 10.667 181.999 32 251.999s51.5 127.167 90.5 171.5s86.5 76.333 142.5 96s118 29.5 186 29.5s129.667 -9.83301 185 -29.5s102.833 -51.667 142.5 -96s70.5 -101.5 92.5 -171.5s33 -154 33 -252c0 -100 -11 -184.667 -33 -254
s-52.833 -126.166 -92.5 -170.499s-87.167 -76.5 -142.5 -96.5s-117 -30 -185 -30s-130 10 -186 30s-103.5 52.167 -142.5 96.5s-69.167 101.333 -90.5 171s-32 154.167 -32 253.5zM342 525.999c0 -124 13.333 -213 40 -267s68.667 -81 126 -81s99.333 27 126 81
s40 143 40 267c0 122.667 -13.333 211 -40 265s-68.667 81 -126 81s-99.333 -26.833 -126 -80.5s-40 -142.167 -40 -265.5z" />
    <glyph glyph-name="afii10081" unicode="&#x43f;" horiz-adv-x="1042" 
d="M106 0v1053h832v-1053h-276v836h-281v-836h-275z" />
    <glyph glyph-name="afii10082" unicode="&#x440;" 
d="M100 -469l-0.000976562 1522h256l13 -140h4c9.33301 13.333 22.5 29.333 39.5 48s37.167 36.5 60.5 53.5s50.333 31.333 81 43s63.667 17.5 99 17.5c46.667 0 90.167 -10.5 130.5 -31.5s75.5 -53.333 105.5 -97s53.833 -99.334 71.5 -167.001s26.5 -147.167 26.5 -238.5
c0 -96.667 -10.167 -180.667 -30.5 -252s-48.666 -130.166 -84.999 -176.499s-79 -80.833 -128 -103.5s-102.167 -34 -159.5 -34c-74 0 -143.667 13.667 -209 41v-485h-275zM376.999 201c38 -18 78.334 -27 121.001 -27c69.333 0 120.666 26.333 153.999 79s50 141 50 265
c0 121.333 -13.5 205.666 -40.5 252.999s-67.167 71 -120.5 71c-18 0 -35.5 -4.16699 -52.5 -12.5s-33 -18.666 -48 -30.999s-28 -25.333 -39 -39s-19.167 -25.167 -24.5 -34.5v-524z" />
    <glyph glyph-name="afii10083" unicode="&#x441;" horiz-adv-x="788" 
d="M57 510c0 191.333 38.001 333.333 114.001 426s186.333 139 331 139c57.333 0 107.833 -5.5 151.5 -16.5s75.167 -19.833 94.5 -26.5l-33 -203c-13.333 5.33301 -36.5 12.166 -69.5 20.499s-67.833 12.5 -104.5 12.5c-68 0 -118.167 -27 -150.5 -81
s-48.5 -141 -48.5 -261c0 -121.333 16.667 -206.666 50 -255.999s80 -74 140 -74c42 0 80.167 8 114.5 24s59.166 26.667 74.499 32l63 -176c-9.33301 -4 -22.833 -11.167 -40.5 -21.5s-39.167 -21 -64.5 -32s-54.333 -20.667 -87 -29s-69 -12.5 -109 -12.5
c-138 0 -243.5 43.5 -316.5 130.5s-109.5 221.833 -109.5 404.5z" />
    <glyph glyph-name="afii10084" unicode="&#x442;" horiz-adv-x="804" 
d="M20 834v219h760l2 -219h-241v-834h-275v834h-246z" />
    <glyph glyph-name="afii10085" unicode="&#x443;" horiz-adv-x="940" 
d="M14 1053h289l21.5 -87.5l30 -126l35 -147.5l34.5 -151.5l29.5 -138c9 -43 16.167 -78.833 21.5 -107.5c8 44 20.333 102.5 37 175.5l50.5 223l50 213l36.5 146.5h279l-346 -1112c-22 -69.333 -47.667 -127 -77 -173s-59.333 -84 -90 -114s-60.667 -53.5 -90 -70.5
l-77 -44.5l-27.5 37l-35 47.5l-34 47l-26.5 36.5c8 6.66699 22 16.5 42 29.5s41.5 30.5 64.5 52.5s45.167 48.333 66.5 79s37.333 67 48 109z" />
    <glyph glyph-name="afii10086" unicode="&#x444;" horiz-adv-x="1452" 
d="M57 508c0 83.333 8.66895 159.831 26.002 229.498s42.666 129.334 75.999 179.001s75.166 88.5 125.499 116.5s109.166 42 176.499 42c28.667 0 53.834 -5.5 75.501 -16.5s40.167 -22.5 55.5 -34.5v449l268 40v-505c13.333 15.333 34.166 30.333 62.499 45
s64.166 22 107.499 22c61.333 0 114.5 -13.667 159.5 -41s83 -64.5 114 -111.5s54 -103 69 -168s22.5 -134.167 22.5 -207.5c0 -83.333 -8.66699 -160.166 -26 -230.499s-42.666 -130.833 -75.999 -181.5s-75.5 -90 -126.5 -118s-110.167 -42 -177.5 -42
c-28.667 0 -53.5 5.16699 -74.5 15.5s-39.167 21.833 -54.5 34.5v-494h-268v512h-2c-13.333 -15.333 -34.166 -30.5 -62.499 -45.5s-63.5 -22.5 -105.5 -22.5c-61.333 0 -114.5 14 -159.5 42s-83 66 -114 114s-54 104.333 -69 169s-22.5 134 -22.5 208zM336.002 527.998
c0 -110.667 12.5 -197.334 37.5 -260.001s63.5 -94 115.5 -94c27.333 0 48.5 3.16699 63.5 9.5s28.167 14.833 39.5 25.5v659c-13.333 2.66699 -28.666 4.83398 -45.999 6.50098s-33.333 2.5 -48 2.5c-58.667 0 -100.334 -29.833 -125.001 -89.5s-37 -146.167 -37 -259.5z
M860.002 179.998c13.333 -2.66699 27.6641 -4.66895 42.9971 -6.00195s31 -2 47 -2c60 0 102.333 30.333 127 91s37 148.334 37 263.001c0 110.667 -12.167 196.334 -36.5 257.001s-63.166 91 -116.499 91c-27.333 0 -48.166 -3 -62.499 -9s-27.166 -14.333 -38.499 -25
v-660z" />
    <glyph glyph-name="afii10087" unicode="&#x445;" horiz-adv-x="935" 
d="M10 0l298.999 545.002l-278 508h297c6.66699 -13.333 16.5 -36.5 29.5 -69.5l42 -105l43 -108.5c13.667 -35.333 23.834 -63.333 30.501 -84c1.33301 0 5.5 8.83301 12.5 26.5l25.5 66.5l33.5 86l34 87c10.333 27.333 18.833 50.666 25.5 69.999s10.667 29.666 12 30.999
h289l-139.5 -258l-140.5 -258l299 -537h-295c-8 15.333 -19.667 39.333 -35 72l-48.5 107.5l-49 114.5c-15.667 37.333 -27.5 67.666 -35.5 90.999c-8 -23.333 -19.667 -53.666 -35 -90.999l-47.5 -114.5l-46 -107.5l-31.5 -72h-291z" />
    <glyph glyph-name="afii10088" unicode="&#x446;" horiz-adv-x="1081" 
d="M106 0v1053h275v-838h281v838h274v-838h111v-545h-238v330h-703z" />
    <glyph glyph-name="afii10089" unicode="&#x447;" horiz-adv-x="980" 
d="M68 666v386.999h276v-275c0 -42 1 -77.333 3 -106s6.83301 -52 14.5 -70s18.667 -31 33 -39s34.5 -12 60.5 -12c9.33301 0 21.166 1 35.499 3s28.666 5 42.999 9s27.333 8.5 39 13.5s20.834 10.167 27.501 15.5v461h274v-1053h-274v410
c-8 -5.33301 -19.5 -12.166 -34.5 -20.499s-33.5 -16.333 -55.5 -24s-47.667 -14.167 -77 -19.5s-61.666 -8 -96.999 -8c-91.333 0 -158.833 24.833 -202.5 74.5s-65.5 134.167 -65.5 253.5z" />
    <glyph glyph-name="afii10090" unicode="&#x448;" horiz-adv-x="1466" 
d="M106 0v1053h269v-838h227v838h262v-838h226v838h270v-1053h-1254z" />
    <glyph glyph-name="afii10091" unicode="&#x449;" horiz-adv-x="1507" 
d="M106 0v1053h269v-838h227v838h262v-838h226v838h270v-838h113v-545h-242v330h-1125z" />
    <glyph glyph-name="afii10092" unicode="&#x44a;" horiz-adv-x="1091" 
d="M14 836l0.000976562 217h502v-359c10.667 1.33301 33.167 5.83301 67.5 13.5s73.166 11.5 116.499 11.5c45.333 0 88.5 -5.83301 129.5 -17.5s76.833 -30.834 107.5 -57.501s55.167 -62.5 73.5 -107.5s27.5 -100.167 27.5 -165.5c0 -68 -11.167 -126.333 -33.5 -175
s-53.333 -88.667 -93 -120s-86.5 -54.166 -140.5 -68.499s-112.333 -21.5 -175 -21.5h-76c-60 0 -115.167 2.33301 -165.5 7s-87.833 7 -112.5 7v836h-228zM516.001 178c15.333 -1.33301 30.833 -2.33398 46.5 -3.00098s30.834 -1 45.501 -1c48 0 85.667 15.333 113 46
s41 76.667 41 138c0 62.667 -12.167 106 -36.5 130s-58.5 36 -102.5 36c-23.333 0 -46.333 -1.66699 -69 -5s-35.334 -5.66602 -38.001 -6.99902v-334z" />
    <glyph glyph-name="afii10093" unicode="&#x44b;" horiz-adv-x="1380" 
d="M106 0l0.00195312 1053h275v-359c10.667 1.33301 33.167 5.83301 67.5 13.5s73.166 11.5 116.499 11.5c45.333 0 88.5 -5.83301 129.5 -17.5s76.833 -30.834 107.5 -57.501s55.167 -62.5 73.5 -107.5s27.5 -100.167 27.5 -165.5c0 -68 -11.167 -126.333 -33.5 -175
s-53.333 -88.667 -93 -120s-86.5 -54.166 -140.5 -68.499s-112.333 -21.5 -175 -21.5h-76c-60 0 -115.333 2.33301 -166 7s-88.334 7 -113.001 7zM381.002 178c15.333 -1.33301 30.8311 -2.33398 46.498 -3.00098s30.834 -1 45.501 -1c48 0 85.667 15.333 113 46
s41 76.667 41 138c0 62.667 -12.333 106 -37 130s-59 36 -103 36c-23.333 0 -46.166 -1.66699 -68.499 -5s-34.833 -5.66602 -37.5 -6.99902v-334zM997 -0.000976562v1053h277v-1053h-277z" />
    <glyph glyph-name="afii10094" unicode="&#x44c;" horiz-adv-x="946" 
d="M106 0l0.00195312 1053h275v-359c10.667 1.33301 33.167 5.83301 67.5 13.5s73.166 11.5 116.499 11.5c45.333 0 88.5 -5.83301 129.5 -17.5s76.833 -30.834 107.5 -57.501s55.167 -62.5 73.5 -107.5s27.5 -100.167 27.5 -165.5c0 -68 -11.167 -126.333 -33.5 -175
s-53.333 -88.667 -93 -120s-86.5 -54.166 -140.5 -68.499s-112.333 -21.5 -175 -21.5h-76c-60 0 -115.333 2.33301 -166 7s-88.334 7 -113.001 7zM381.002 178c15.333 -1.33301 30.8311 -2.33398 46.498 -3.00098s30.834 -1 45.501 -1c48 0 85.667 15.333 113 46
s41 76.667 41 138c0 62.667 -12.333 106 -37 130s-59 36 -103 36c-23.333 0 -46.166 -1.66699 -68.499 -5s-34.833 -5.66602 -37.5 -6.99902v-334z" />
    <glyph glyph-name="afii10095" unicode="&#x44d;" horiz-adv-x="806" 
d="M16 68c9.33301 28.667 19.1699 57 29.5029 85l30.5 85c15.333 -5.33301 40.666 -15.666 75.999 -30.999s77.666 -23 126.999 -23c53.333 0 98.666 19.167 135.999 57.5s60 107.5 68 207.5h-309v174h311c-5.33301 92.667 -24.666 157 -57.999 193s-80 54 -140 54
c-38 0 -75.833 -4.33301 -113.5 -13s-62.834 -15.667 -75.501 -21l-45 188c19.333 6.66699 52.5 16.834 99.5 30.501s104.167 20.5 171.5 20.5c61.333 0 118.166 -10.167 170.499 -30.5s97.666 -52.333 135.999 -96s68.5 -99 90.5 -166s33 -147.5 33 -241.5
c0 -102.667 -11 -189.834 -33 -261.501s-52.5 -130 -91.5 -175s-84.667 -77.833 -137 -98.5s-109.166 -31 -170.499 -31c-45.333 0 -84.666 4.16699 -117.999 12.5s-62.333 17.666 -87 27.999s-45.167 20.5 -61.5 30.5s-29.5 17.333 -39.5 22z" />
    <glyph glyph-name="afii10096" unicode="&#x44e;" horiz-adv-x="1470" 
d="M106 0v1053h275v-402l158 2c8 78 24.333 144 49 198s55.667 97.667 93 131s80.333 57.166 129 71.499s101 21.5 157 21.5c65.333 0 125.333 -9.5 180 -28.5s102.167 -50 142.5 -93s71.333 -99.333 93 -169s32.5 -155.834 32.5 -258.501s-10.833 -189 -32.5 -259
s-52.667 -126.5 -93 -169.5s-87.833 -74.167 -142.5 -93.5s-114.667 -29 -180 -29c-57.333 0 -111.333 8 -162 24s-94.834 42 -132.501 78s-68.667 83.333 -93 142s-39.166 131 -44.499 217h-154v-436h-275zM805 526.002c0 -113.333 12.333 -200.333 37 -261
s66.334 -91 125.001 -91c60 0 102.167 30.333 126.5 91s36.5 147.667 36.5 261s-12.167 200.166 -36.5 260.499s-66.5 90.5 -126.5 90.5c-58.667 0 -100.334 -30.167 -125.001 -90.5s-37 -147.166 -37 -260.499z" />
    <glyph glyph-name="afii10097" unicode="&#x44f;" horiz-adv-x="942" 
d="M37 0l221.001 426c-54.667 19.333 -101.167 54.833 -139.5 106.5s-57.5 118.5 -57.5 200.5c0 121.333 37.667 207 113 257s182 75 320 75c74 0 140.5 -2.66699 199.5 -8s105.833 -8 140.5 -8v-1049h-275v395c-10.667 -1.33301 -21.834 -2 -33.501 -2h-33.5l-166 -393
h-289zM332.001 721c0 -57.333 12.1699 -98.667 36.5029 -124s61.166 -38 110.499 -38h38c13.333 0 27.333 0.666992 42 2v324c-10.667 0 -21.834 0.333008 -33.501 1s-22.834 1 -33.501 1c-52 0 -91.667 -13.333 -119 -40s-41 -68.667 -41 -126z" />
    <glyph glyph-name="afii10071" unicode="&#x451;" horiz-adv-x="935" 
d="M57 498c0 98 11.3301 183.167 33.9971 255.5s53.167 132.5 91.5 180.5s83 83.5 134 106.5s105.833 34.5 164.5 34.5s112.334 -9.16699 161.001 -27.5s90.334 -47.666 125.001 -87.999s62 -91.166 82 -152.499s30 -135 30 -221c0 -36.667 -1.83301 -68.334 -5.5 -95.001
s-6.16699 -43 -7.5 -49h-534c1.33301 -91.333 21.833 -157.166 61.5 -197.499s88.834 -60.5 147.501 -60.5c54.667 0 104.167 9.33301 148.5 28l103.5 44l55 -180c-8 -5.33301 -21.667 -13.5 -41 -24.5s-44.333 -22.333 -75 -34s-66.5 -21.667 -107.5 -30
s-86.833 -12.5 -137.5 -12.5c-60 0 -115.833 10 -167.5 30s-97 51.167 -136 93.5s-69.833 96.166 -92.5 161.499s-34 144.666 -34 237.999zM142.997 1376c0 46.667 13.333 84.334 40 113.001s60 43 100 43c39.333 0 71.666 -14.333 96.999 -43s38 -66.334 38 -113.001
s-12.667 -84.167 -38 -112.5s-57.666 -42.5 -96.999 -42.5s-72.5 14.333 -99.5 43s-40.5 66 -40.5 112zM331.997 612l280.002 2c0 52 -3.33301 95.167 -10 129.5s-15.834 61.333 -27.501 81s-25.667 33.667 -42 42s-34.166 12.5 -53.499 12.5
c-18 0 -35.833 -4.5 -53.5 -13.5s-33.334 -24.167 -47.001 -45.5s-24.834 -49 -33.501 -83s-13 -75.667 -13 -125zM534.999 1376c0 46.667 12.833 84.334 38.5 113.001s58.5 43 98.5 43c39.333 0 72.333 -14.333 99 -43s40 -66.334 40 -113.001s-13.333 -84.167 -40 -112.5
s-59.667 -42.5 -99 -42.5s-72 14.333 -98 43s-39 66 -39 112z" />
    <glyph glyph-name="afii10099" unicode="&#x452;" horiz-adv-x="1048" 
d="M12 1155l-0.00390625 193.003h94v165h269v-165h266v-193h-264v-299c6.66699 8 17.834 19.5 33.501 34.5s35.834 30 60.501 45s53 28.333 85 40s68.667 17.5 110 17.5c60 0 108 -11.5 144 -34.5s64 -57.5 84 -103.5s33.333 -102.333 40 -169s10 -143 10 -229
c0 -118.667 -2.33301 -228.334 -7 -329.001s-11 -194 -19 -280c-10.667 -118.667 -40.667 -203.5 -90 -254.5s-126 -76.5 -230 -76.5c-19.333 0 -37.166 1 -53.499 3s-32.5 4.33301 -48.5 7l8 205c23.333 1.33301 43.833 4.66602 61.5 9.99902s32.667 14.166 45 26.499
s21.833 29.5 28.5 51.5s12 49.333 16 82c9.33301 86 15.166 180.167 17.499 282.5s3.5 215.5 3.5 339.5c0 45.333 -2.33301 82.333 -7 111s-11.5 50.834 -20.5 66.501s-20.667 26.5 -35 32.5s-31.166 9 -50.499 9c-22 0 -42.5 -4 -61.5 -12s-36.667 -17.833 -53 -29.5
s-30.666 -23.334 -42.999 -35.001l-28.5 -27.5v-639h-271v1155h-94z" />
    <glyph glyph-name="afii10100" unicode="&#x453;" horiz-adv-x="677" 
d="M106 0v1053h562c-2.66699 -36.667 -5.5 -73.167 -8.5 -109.5l-8.5 -107.5h-135c-44.667 0 -89.667 0.666992 -135 2v-838h-275zM217 1284l285 342l155 -149l-160.5 -152l-160.5 -151z" />
    <glyph glyph-name="afii10101" unicode="&#x454;" horiz-adv-x="806" 
d="M57 504c0 98 11.002 183.169 33.002 255.502s52.5 131.833 91.5 178.5s85.333 81.167 139 103.5s112.834 33.5 177.501 33.5c65.333 0 119.166 -6.16699 161.499 -18.5s73.166 -21.833 92.499 -28.5l-35 -194c-12 5.33301 -36.5 12.666 -73.5 21.999
s-74.833 14 -113.5 14c-64 0 -111.333 -19 -142 -57s-49.334 -102 -56.001 -192h299v-175h-301c6.66699 -94 28.167 -161.167 64.5 -201.5s82.166 -60.5 137.499 -60.5c48 0 90 8.33301 126 25s61.667 27.667 77 33c9.33301 -31.333 18.833 -61.333 28.5 -90l29.5 -91
c-9.33301 -4 -23 -10.667 -41 -20s-40 -18.833 -66 -28.5s-55.667 -18.334 -89 -26.001s-70.666 -11.5 -111.999 -11.5c-62.667 0 -120.334 10.667 -173.001 32s-97.667 53.833 -135 97.5s-66.666 98.667 -87.999 165s-32 144.5 -32 234.5z" />
    <glyph glyph-name="afii10102" unicode="&#x455;" horiz-adv-x="770" 
d="M37 57l47 185.001c8 -2.66699 20.167 -7.83398 36.5 -15.501s35.5 -15.167 57.5 -22.5s45 -13.833 69 -19.5s47.333 -8.5 70 -8.5c39.333 0 70 6.16699 92 18.5s33 38.166 33 77.499c0 28.667 -9.16699 54.334 -27.5 77.001s-41.833 44.5 -70.5 65.5l-91 66.5
c-32 23.333 -62.333 49 -91 77s-52.334 59.5 -71.001 94.5s-28 76.167 -28 123.5c0 94 30.833 167.333 92.5 220s149.167 79 262.5 79c69.333 0 126.5 -5.5 171.5 -16.5s77.167 -19.833 96.5 -26.5l-8 -101l-8 -100l-84.5 22.5c-41 11 -82.5 16.5 -124.5 16.5
c-87.333 0 -131 -27.333 -131 -82c0 -26 9.83301 -49.5 29.5 -70.5s44.167 -41.667 73.5 -62l95.5 -64.5c34.333 -22.667 66.166 -48 95.499 -76s53.833 -60.5 73.5 -97.5s29.5 -79.833 29.5 -128.5c0 -44 -6.83301 -85 -20.5 -123s-35.167 -71 -64.5 -99
s-66.833 -50.333 -112.5 -67s-100.5 -25 -164.5 -25c-44 0 -83.667 3.5 -119 10.5s-66.666 15 -93.999 24s-50.666 17.833 -69.999 26.5s-34.333 15.667 -45 21z" />
    <glyph glyph-name="afii10103" unicode="&#x456;" horiz-adv-x="489" 
d="M86 1374c0 49.333 15 89.666 45 120.999s67 47 111 47s80.833 -15.667 110.5 -47s44.5 -71.666 44.5 -120.999s-15 -89.333 -45 -120s-66.667 -46 -110 -46c-44 0 -81 15.333 -111 46s-45 70.667 -45 120zM106 0v1032l277 41v-1073h-277z" />
    <glyph glyph-name="afii10104" unicode="&#x457;" horiz-adv-x="489" 
d="M-88 1376c0 46.667 13.001 84.334 39.001 113.001s58.667 43 98 43s71.666 -14.333 96.999 -43s38 -66.334 38 -113.001s-12.5 -84.167 -37.5 -112.5s-57.5 -42.5 -97.5 -42.5c-39.333 0 -72 14.333 -98 43s-39 66 -39 112zM106.001 0v1032l277 41v-1073h-277z
M301.001 1376c0 46.667 13 84.334 39 113.001s58.667 43 98 43s72.5 -14.333 99.5 -43s40.5 -66.334 40.5 -113.001s-13.333 -84.167 -40 -112.5s-60 -42.5 -100 -42.5c-39.333 0 -72 14.333 -98 43s-39 66 -39 112z" />
    <glyph glyph-name="afii10105" unicode="&#x458;" horiz-adv-x="499" 
d="M-45 -473l12.002 202.999c27.333 2.66699 50.666 8 69.999 16s34.666 20.167 45.999 36.5s19.833 38.5 25.5 66.5s8.5 63.333 8.5 106v1077l274 41v-1145c0 -75.333 -7.16699 -139.166 -21.5 -191.499s-35.166 -94.833 -62.499 -127.5s-61.833 -56.5 -103.5 -71.5
s-89.834 -22.5 -144.501 -22.5c-19.333 0 -37.333 1.33301 -54 4zM96.002 1374c0 49.333 15.333 89.666 46 120.999s68 47 112 47c42 0 78.167 -15.667 108.5 -47s45.5 -71.666 45.5 -120.999s-15.167 -89.333 -45.5 -120s-66.5 -46 -108.5 -46
c-44 0 -81.333 15.333 -112 46s-46 70.667 -46 120z" />
    <glyph glyph-name="afii10106" unicode="&#x459;" horiz-adv-x="1507" 
d="M27 -6l14.0039 190.001c20.667 4 38.167 8.5 52.5 13.5s26.5 12.167 36.5 21.5s18.167 22.666 24.5 39.999s11.5 40.333 15.5 69c13.333 95.333 23.166 202.333 29.499 321s11.5 253.334 15.5 404.001h713v-359c10.667 1.33301 33.167 5.83301 67.5 13.5
s73.166 11.5 116.499 11.5c45.333 0 88.5 -5.83301 129.5 -17.5s76.833 -30.834 107.5 -57.501s55.167 -62.5 73.5 -107.5s27.5 -100.167 27.5 -165.5c0 -68 -11.333 -126.333 -34 -175s-53.667 -88.667 -93 -120s-86 -54.166 -140 -68.499s-112.333 -21.5 -175 -21.5h-76
c-60 0 -115.333 2.33301 -166 7s-88.334 7 -113.001 7v836h-194c-2.66699 -112 -7.5 -214.833 -14.5 -308.5s-15.833 -180.834 -26.5 -261.501c-6.66699 -50.667 -16.834 -93.667 -30.501 -129s-32.5 -64 -56.5 -86s-54.167 -38 -90.5 -48s-79.5 -15 -129.5 -15
c-31.333 0 -59.333 2 -84 6zM928.004 178.001c15.333 -1.33301 30.667 -2.33398 46 -3.00098s30.666 -1 45.999 -1c48 0 85.667 15.333 113 46s41 76.667 41 138c0 62.667 -12.333 106 -37 130s-59 36 -103 36c-23.333 0 -46.166 -1.66699 -68.499 -5
s-34.833 -5.66602 -37.5 -6.99902v-334z" />
    <glyph glyph-name="afii10107" unicode="&#x45a;" horiz-adv-x="1517" 
d="M106 0l0.000976562 1053h275v-398h283v398h274v-359c10.667 1.33301 33.167 5.83301 67.5 13.5s73.166 11.5 116.499 11.5c45.333 0 88.5 -5.83301 129.5 -17.5s76.833 -30.834 107.5 -57.501s55.167 -62.5 73.5 -107.5s27.5 -100.167 27.5 -165.5
c0 -68 -11.167 -126.333 -33.5 -175s-53.333 -88.667 -93 -120s-86.5 -54.166 -140.5 -68.499s-112.333 -21.5 -175 -21.5h-76c-60 0 -115.333 2.33301 -166 7s-88 7 -112 7v449h-283v-449h-275zM938.001 178c15.333 -1.33301 30.8311 -2.33398 46.498 -3.00098
s30.834 -1 45.501 -1c48 0 85.667 15.333 113 46s41 76.667 41 138c0 62.667 -12.333 106 -37 130s-59 36 -103 36c-23.333 0 -46.166 -1.66699 -68.499 -5s-34.833 -5.66602 -37.5 -6.99902v-334z" />
    <glyph glyph-name="afii10108" unicode="&#x45b;" horiz-adv-x="1042" 
d="M12 1339l98.9961 0.00390625v81c0 26.667 0.666992 53.667 2 81l262 12v-174h266l-12 -192h-252v-291c6.66699 8 17.834 19.5 33.501 34.5s35.834 30 60.501 45s53.334 28.333 86.001 40s69.667 17.5 111 17.5c58.667 0 106 -11.833 142 -35.5s64 -57.334 84 -101.001
s33.333 -97 40 -160s10 -133.5 10 -211.5v-485h-268v539c0 79.333 -8.83301 133.166 -26.5 161.499s-46.5 42.5 -86.5 42.5c-22 0 -42.833 -4.33301 -62.5 -13s-37.667 -18.834 -54 -30.501s-30.666 -23.334 -42.999 -35.001l-26.5 -25.5v-639h-271v1147h-86z" />
    <glyph glyph-name="afii10109" unicode="&#x45c;" horiz-adv-x="980" 
d="M109 0v1053h274v-414l59 66l207 348h312l-170 -234l-170 -233l374 -586h-329l-263 461l-20 -78v-383h-274zM369 1284l284 342l154 -149l-320 -303z" />
    <glyph glyph-name="afii10110" unicode="&#x45e;" horiz-adv-x="940" 
d="M14 1053h289l21.5 -87.5l30 -126l35 -147.5l34.5 -151.5l29.5 -138c9 -43 16.167 -78.833 21.5 -107.5c8 44 20.333 102.5 37 175.5l50.5 223l50 213l36.5 146.5h279l-346 -1112c-22 -69.333 -47.667 -127 -77 -173s-59.333 -84 -90 -114s-60.667 -53.5 -90 -70.5
l-77 -44.5l-27.5 37l-35 47.5l-34 47l-26.5 36.5c8 6.66699 22 16.5 42 29.5s41.5 30.5 64.5 52.5s45.167 48.333 66.5 79s37.333 67 48 109zM160 1438c23.333 8 46.167 16.5 68.5 25.5s45.166 17.5 68.499 25.5c0 -10.667 3.33301 -22.5 10 -35.5s17.167 -25.667 31.5 -38
s32.5 -22.666 54.5 -30.999s47.333 -12.5 76 -12.5s53.834 4.5 75.501 13.5s39.667 19.667 54 32s25 25 32 38s10.5 24.167 10.5 33.5l137 -47c0 -28.667 -6.16699 -57.334 -18.5 -86.001s-31.5 -55 -57.5 -79s-58 -43.5 -96 -58.5s-83.667 -22.5 -137 -22.5
c-52 0 -97.5 7.16699 -136.5 21.5s-71.333 33.166 -97 56.499s-44.667 49.333 -57 78s-18.5 57.334 -18.5 86.001z" />
    <glyph glyph-name="afii10193" unicode="&#x45f;" horiz-adv-x="1062" 
d="M106 0v1053h275v-828h301v828h274v-1053h-305v-313h-237v313h-308z" />
    <glyph glyph-name="afii10050" unicode="&#x490;" horiz-adv-x="811" 
d="M127 0v1348h426v221l242 41v-496h-383v-1114h-285z" />
    <glyph glyph-name="afii10098" unicode="&#x491;" horiz-adv-x="671" 
d="M106 0v1053h318v231l233 41v-489h-276v-836h-275z" />
    <glyph glyph-name="uni2000" unicode="&#x2000;" horiz-adv-x="953" 
 />
    <glyph glyph-name="uni2001" unicode="&#x2001;" horiz-adv-x="1907" 
 />
    <glyph glyph-name="uni2002" unicode="&#x2002;" horiz-adv-x="953" 
 />
    <glyph glyph-name="uni2003" unicode="&#x2003;" horiz-adv-x="1907" 
 />
    <glyph glyph-name="uni2004" unicode="&#x2004;" horiz-adv-x="635" 
 />
    <glyph glyph-name="uni2005" unicode="&#x2005;" horiz-adv-x="476" 
 />
    <glyph glyph-name="uni2006" unicode="&#x2006;" horiz-adv-x="317" 
 />
    <glyph glyph-name="uni2007" unicode="&#x2007;" horiz-adv-x="317" 
 />
    <glyph glyph-name="uni2008" unicode="&#x2008;" horiz-adv-x="238" 
 />
    <glyph glyph-name="uni2009" unicode="&#x2009;" horiz-adv-x="381" 
 />
    <glyph glyph-name="uni200A" unicode="&#x200a;" horiz-adv-x="105" 
 />
    <glyph glyph-name="uni2010" unicode="&#x2010;" horiz-adv-x="653" 
d="M74 463v221h506v-221h-506z" />
    <glyph glyph-name="uni2011" unicode="&#x2011;" horiz-adv-x="653" 
d="M74 463v221h506v-221h-506z" />
    <glyph glyph-name="figuredash" unicode="&#x2012;" horiz-adv-x="653" 
d="M74 463v221h506v-221h-506z" />
    <glyph glyph-name="endash" unicode="&#x2013;" horiz-adv-x="925" 
d="M49 494v229h825v-229h-825z" />
    <glyph glyph-name="emdash" unicode="&#x2014;" horiz-adv-x="1558" 
d="M84 496v225h1389v-225h-1389z" />
    <glyph glyph-name="quoteleft" unicode="&#x2018;" horiz-adv-x="421" 
d="M82 1118c0 32.667 5.16699 67.168 15.5 103.501s24 72.833 41 109.5s36.667 73.167 59 109.5s45.166 71.5 68.499 105.5l56.5 -28.5l56.5 -28.5c-23.333 -44 -44.166 -90.833 -62.499 -140.5s-27.5 -93.5 -27.5 -131.5c2.66699 -22 10.167 -44 22.5 -66
s19.833 -48 22.5 -78c0 -22 -12 -42.5 -36 -61.5s-52.333 -28.5 -85 -28.5c-36.667 0 -67.667 11.667 -93 35s-38 56.666 -38 99.999z" />
    <glyph glyph-name="quoteright" unicode="&#x2019;" horiz-adv-x="421" 
d="M41 1038c23.333 44 44.168 91.3311 62.501 141.998s27.5 94.334 27.5 131.001c-1.33301 22 -8.83301 43.833 -22.5 65.5s-20.5 47.5 -20.5 77.5c0 22 12 42.5 36 61.5s52.333 28.5 85 28.5c86 0 129 -54.667 129 -164c-2.66699 -31.333 -9.5 -64.333 -20.5 -99
s-25.333 -69.167 -43 -103.5s-36.834 -68.166 -57.501 -101.499l-61 -95z" />
    <glyph glyph-name="quotesinglbase" unicode="&#x201a;" horiz-adv-x="421" 
d="M41 -248c23.333 44 44.168 91.3311 62.501 141.998s27.5 94.334 27.5 131.001c-1.33301 22 -8.83301 43.833 -22.5 65.5s-20.5 47.5 -20.5 77.5c0 22 12 42.5 36 61.5s52.333 28.5 85 28.5c86 0 129 -54.667 129 -164c-2.66699 -31.333 -9.83398 -64.333 -21.501 -99
s-26 -69.167 -43 -103.5s-35.833 -68.166 -56.5 -101.499s-41 -64.333 -61 -93z" />
    <glyph glyph-name="quotedblleft" unicode="&#x201c;" horiz-adv-x="774" 
d="M82 1118c0 32.667 5.16602 67.167 15.499 103.5s24 72.833 41 109.5s36.667 73.167 59 109.5s45.166 71.5 68.499 105.5l113 -57c-23.333 -44 -43.833 -90.833 -61.5 -140.5s-26.5 -93.5 -26.5 -131.5c2.66699 -22 9.83398 -43.667 21.501 -65
s18.834 -47.666 21.501 -78.999c0 -22 -12 -42.5 -36 -61.5s-52.333 -28.5 -85 -28.5c-36.667 0 -67.667 11.667 -93 35s-38 56.666 -38 99.999zM429.999 1118c0 32.667 5.16797 67.168 15.501 103.501s24.333 72.833 42 109.5s37.5 73.5 59.5 110.5s44.333 71.833 67 104.5
l56.5 -28.5l56.5 -28.5c-23.333 -44 -43.833 -90.833 -61.5 -140.5s-26.5 -93.5 -26.5 -131.5c2.66699 -22 10.167 -44 22.5 -66s19.833 -48 22.5 -78c0 -22 -12.333 -42.5 -37 -61.5s-53.334 -28.5 -86.001 -28.5c-36.667 0 -67.667 11.667 -93 35s-38 56.666 -38 99.999z
" />
    <glyph glyph-name="quotedblright" unicode="&#x201d;" horiz-adv-x="774" 
d="M41 1038c23.333 44 44.168 91.3311 62.501 141.998s27.5 94.334 27.5 131.001c-1.33301 22 -8.83301 43.833 -22.5 65.5s-20.5 47.5 -20.5 77.5c0 22 12 42.5 36 61.5s52.333 28.5 85 28.5c86 0 129 -54.667 129 -164c-2.66699 -31.333 -9.5 -64.333 -20.5 -99
s-25.333 -69.167 -43 -103.5s-36.834 -68.166 -57.501 -101.499l-61 -95zM391.002 1038c18 31.333 35.498 66.834 52.498 106.501s25.5 74.5 25.5 104.5c0 23.333 -3 47 -9 71s-9 50.333 -9 79v10c0 39.333 10.833 71.666 32.5 96.999s46.167 38 73.5 38
c87.333 0 131 -54.667 131 -164c-2.66699 -31.333 -9.5 -64.333 -20.5 -99s-25.333 -69.5 -43 -104.5s-37 -69.167 -58 -102.5s-41.833 -64.333 -62.5 -93c-19.333 10.667 -38.166 20.167 -56.499 28.5s-37.166 17.833 -56.499 28.5z" />
    <glyph glyph-name="quotedblbase" unicode="&#x201e;" horiz-adv-x="774" 
d="M41 -248c23.333 44 44.168 91.3311 62.501 141.998s27.5 94.334 27.5 131.001c-1.33301 22 -8.83301 43.833 -22.5 65.5s-20.5 47.5 -20.5 77.5c0 22 12 42.5 36 61.5s52.333 28.5 85 28.5c86 0 129 -54.667 129 -164c-2.66699 -31.333 -9.83398 -64.333 -21.501 -99
s-26 -69.167 -43 -103.5s-35.833 -68.166 -56.5 -101.499s-41 -64.333 -61 -93zM391.002 -248.002c18 32.667 35.501 68.502 52.501 107.502s25.5 74.167 25.5 105.5c0 23.333 -3 46.666 -9 69.999s-9 49.333 -9 78v10c0 39.333 10.833 71.666 32.5 96.999
s46.167 38 73.5 38c87.333 0 131 -54.667 131 -164c-2.66699 -31.333 -9.83398 -64 -21.501 -98s-26 -68.5 -43 -103.5s-36 -69.167 -57 -102.5s-41.833 -64.333 -62.5 -93z" />
    <glyph glyph-name="bullet" unicode="&#x2022;" horiz-adv-x="794" 
d="M125 725c0 45.333 7.16602 86.666 21.499 123.999s33.833 69.666 58.5 96.999s53.667 48.5 87 63.5s69 22.5 107 22.5s73.833 -7.5 107.5 -22.5s62.834 -36.167 87.501 -63.5s44.167 -59.666 58.5 -96.999s21.5 -78.666 21.5 -123.999s-7.16699 -86.333 -21.5 -123
s-33.833 -68.334 -58.5 -95.001s-53.667 -47.5 -87 -62.5s-69.333 -22.5 -108 -22.5c-38 0 -73.667 7.5 -107 22.5s-62.333 35.833 -87 62.5s-44.167 58.334 -58.5 95.001s-21.5 77.667 -21.5 123z" />
    <glyph glyph-name="ellipsis" unicode="&#x2026;" horiz-adv-x="1499" 
d="M102 152c0 52 14.667 93.667 44 125s66 47 110 47s80.333 -15.667 109 -47s43 -73 43 -125s-14.333 -93.667 -43 -125s-65 -47 -109 -47s-80.667 15.667 -110 47s-44 73 -44 125zM596 152c0 52 14.667 93.667 44 125s66 47 110 47s80.167 -15.667 108.5 -47
s42.5 -73 42.5 -125s-14.333 -93.667 -43 -125s-64.667 -47 -108 -47c-44 0 -80.667 15.667 -110 47s-44 73 -44 125zM1090 152c0 52 14.668 93.667 44.001 125s65.666 47 108.999 47c44 0 80.667 -15.667 110 -47s44 -73 44 -125s-14.667 -93.667 -44 -125
s-66 -47 -110 -47s-80.5 15.667 -109.5 47s-43.5 73 -43.5 125z" />
    <glyph glyph-name="uni202F" unicode="&#x202f;" horiz-adv-x="381" 
 />
    <glyph glyph-name="guilsinglleft" unicode="&#x2039;" horiz-adv-x="604" 
d="M86 549l155.5 195.5l155.5 195.5l127 -111l-205 -278l102.5 -140.5l102.5 -138.5l-63.5 -61.5c-20.333 -20.333 -41.5 -39.833 -63.5 -58.5l-155.5 198.5z" />
    <glyph glyph-name="guilsinglright" unicode="&#x203a;" horiz-adv-x="604" 
d="M76 821l129 119l311 -395l-311 -393l-127 110l203 281z" />
    <glyph glyph-name="uni205F" unicode="&#x205f;" horiz-adv-x="476" 
 />
    <glyph glyph-name="Euro" unicode="&#x20ac;" horiz-adv-x="1110" 
d="M57 461l8.50391 71.501l8.5 71.5h90v141h-107l17 144h104c50.667 323.333 229 485 535 485c42 0 82.5 -2.66699 121.5 -8s73.833 -11.833 104.5 -19.5s57 -14.834 79 -21.501s37 -11.334 45 -14.001l-19.5 -107.5l-19.5 -107.5c-9.33301 4 -23.666 9 -42.999 15
s-41.166 11.5 -65.499 16.5s-49.833 9.5 -76.5 13.5s-52.334 6 -77.001 6c-86 0 -151.5 -21.5 -196.5 -64.5s-75.167 -107.5 -90.5 -193.5h356l-14 -144h-356v-141h346l-14 -143h-318c15.333 -90 45.166 -156.5 89.499 -199.5s110.166 -64.5 197.499 -64.5
c24.667 0 50.334 2 77.001 6s52.167 8.33301 76.5 13s46.166 10.167 65.499 16.5s33.666 11.5 42.999 15.5l19.5 -107.5l19.5 -107.5l-45 -14.5c-22 -7 -48.333 -14.167 -79 -21.5s-65.5 -13.833 -104.5 -19.5s-79.5 -8.5 -121.5 -8.5
c-152.667 0 -273.834 40.333 -363.501 121s-146.834 204.334 -171.501 371.001h-121z" />
    <glyph glyph-name="trademark" unicode="&#x2122;" horiz-adv-x="1538" 
d="M80 1348v165h569v-165h-194v-664h-189v664h-186zM662 684c4 39.333 10.001 90.833 18.001 154.5l25.5 209l28 234.5c9.66699 80.667 18.5 157.667 26.5 231h188l61.5 -240.5l63.5 -240.5l70 242l69 239h185c15.333 -139.333 29.666 -277.5 42.999 -414.5l41 -414.5h-187
l-43 498v-2l-121 -418h-126l-57.5 221.5l-57.5 220.5c-6.66699 -106.667 -14.5 -205 -23.5 -295s-16.167 -165 -21.5 -225h-182z" />
    <glyph glyph-name="uniE000" unicode="&#xe000;" horiz-adv-x="1054" 
d="M0 0v1055h1055v-1055h-1055z" />
    </font>
</defs>
</svg>
