<svg xmlns="http://www.w3.org/2000/svg" width="100" height="100"><path d="M50 0c27.614 0 50 22.386 50 50s-22.386 50-50 50S0 77.614 0 50 22.386 0 50 0z" opacity=".2"/><path d="M44.934 66.82a2.06 2.06 0 01-2.06-2.06V35.235a2.06 2.06 0 013.379-1.582l17.714 14.762a2.059 2.059 0 010 3.165L46.253 66.343a2.06 2.06 0 01-1.32.477zm2.06-27.187v20.73l12.437-10.366zm2.943 45.365a34.807 34.807 0 01-17.106-4.47 2.06 2.06 0 112.02-3.59c12.019 6.765 27.231 4.673 36.994-5.093 12.047-12.047 12.047-31.648 0-43.695-12.047-12.049-31.649-12.048-43.695 0-12.046 12.047-12.046 31.648 0 43.695a2.06 2.06 0 01-2.913 2.914c-13.653-13.654-13.653-35.869 0-49.523 13.654-13.652 35.867-13.653 49.522 0 13.653 13.654 13.653 35.869 0 49.523C68.033 81.484 59.026 85 49.937 85z"/><path fill="#fff" d="M44.934 66.82a2.06 2.06 0 01-2.06-2.06V35.235a2.06 2.06 0 013.379-1.582l17.714 14.762a2.059 2.059 0 010 3.165L46.253 66.343a2.06 2.06 0 01-1.32.477zm2.06-27.187v20.73l12.437-10.366zm2.943 45.365a34.807 34.807 0 01-17.106-4.47 2.06 2.06 0 112.02-3.59c12.019 6.765 27.231 4.673 36.994-5.093 12.047-12.047 12.047-31.648 0-43.695-12.047-12.049-31.649-12.048-43.695 0-12.046 12.047-12.046 31.648 0 43.695a2.06 2.06 0 01-2.913 2.914c-13.653-13.654-13.653-35.869 0-49.523 13.654-13.652 35.867-13.653 49.522 0 13.653 13.654 13.653 35.869 0 49.523C68.033 81.484 59.026 85 49.937 85z"/></svg>