<svg xmlns="http://www.w3.org/2000/svg" width="14.378" height="14.378" viewBox="72 0 14.378 14.378"><path d="M80.787 5.59a3.207 3.207 0 0 0-.677-.513l-.514.514c-.319.318-.23.687-.215.967a1.37 1.37 0 0 1 .002.048 1.603 1.603 0 0 1 .213.176c.607.608.659 1.63.079 2.298a1.66 1.66 0 0 1-.08.085 657.618 657.618 0 0 1-.048.049l-2.939 2.938a242.389 242.389 0 0 1-.047.047 1.675 1.675 0 0 1-.88.464 1.685 1.685 0 0 1-1.424-.39 1.703 1.703 0 0 1-.079-.074 1.686 1.686 0 0 1-.074-2.303 1.702 1.702 0 0 1 .074-.08l2.08-2.08c-.052-.289-.359-.963-.223-2.07a4.882 4.882 0 0 1 .013-.097.123.123 0 0 1-.013.01.123.123 0 0 0-.013.012l-3.035 3.035a3.354 3.354 0 0 0-.921 1.719c-.198.988.05 2.047.745 2.856a3.418 3.418 0 0 0 .176.19 3.354 3.354 0 0 0 1.72.921 3.368 3.368 0 0 0 2.872-.759 3.42 3.42 0 0 0 .174-.162l3.034-3.035c.659-.658.975-1.519.975-2.374a3.383 3.383 0 0 0-.975-2.391ZM85.391.988a3.354 3.354 0 0 0-1.72-.921A3.368 3.368 0 0 0 80.8.825a3.419 3.419 0 0 0-.174.162L77.81 3.803a3.297 3.297 0 0 0-.8 1.29c-.118.35-.174.715-.174 1.077a3.402 3.402 0 0 0 .974 2.4 3.205 3.205 0 0 0 .677.513L79 8.57c.319-.318.23-.687.215-.967a1.37 1.37 0 0 1-.002-.049A1.633 1.633 0 0 1 79 7.378a1.689 1.689 0 0 1-.486-1.195c0-.395.134-.791.41-1.107A1.658 1.658 0 0 1 79 4.995a64.014 64.014 0 0 1 .047-.047l2.77-2.77a1.675 1.675 0 0 1 .879-.463 1.684 1.684 0 0 1 1.503.464 1.676 1.676 0 0 1 .464.879 1.685 1.685 0 0 1-.39 1.425 1.704 1.704 0 0 1-.074.078l-1.861 1.862a1.567 1.567 0 0 0 .03.127c.092.339.312.976.193 1.943a4.883 4.883 0 0 1-.012.097c.008-.008.017-.013.025-.02l2.817-2.817a3.355 3.355 0 0 0 .921-1.72 3.367 3.367 0 0 0-.759-2.872 3.419 3.419 0 0 0-.162-.174Z" fill="rgba(33, 33, 33, 1)" fill-rule="evenodd" data-name="Forma 1"/></svg>